<svg xmlns="http://www.w3.org/2000/svg" xmlns:xlink="http://www.w3.org/1999/xlink" x="0px" y="0px"
	 viewBox="0 0 512 512" style="enable-background:new 0 0 512 512;" xml:space="preserve">
<style type="text/css">
	.st0{fill:#F7CF7F;stroke:#000000;stroke-miterlimit:10;}
	.st1{fill:#F7CF7F;}
</style>
<g id="Слой_2">
	<rect x="12" y="191" class="st0" width="490" height="306"/>
	<rect x="27.5" y="170.6" class="st0" width="455.5" height="58.4"/>
	<rect x="54" y="156" class="st0" width="402" height="28"/>
	<rect x="49" y="170" class="st0" width="402" height="28"/>
	<rect x="98" y="49" class="st1" width="315" height="158"/>
	<rect x="27.5" y="175" class="st1" width="465.5" height="104"/>
	<rect x="14" y="198" class="st1" width="73" height="40"/>
	<rect x="54" y="153" class="st1" width="233" height="25"/>
	<rect x="382" y="169" class="st1" width="92" height="23"/>
	<rect x="415" y="144" class="st1" width="36" height="12"/>
	<rect x="71" y="135" class="st1" width="40" height="40"/>
	<rect x="229" y="17.1" class="st1" width="53" height="43.9"/>
	<rect x="250" y="9" class="st1" width="21" height="97"/>
	<rect x="410.5" y="144" class="st1" width="36.5" height="36.5"/>
</g>
<g>
	<g>
		<g>
			<path d="M511.9,195.7c-0.1-0.6-0.2-1.2-0.4-1.7c-0.1-0.5-0.3-1-0.5-1.5c-0.2-0.5-0.5-0.9-0.9-1.3c-0.3-0.5-0.7-0.9-1.1-1.3
				c-0.1-0.1-0.2-0.3-0.3-0.4l-82.1-63.7V59.7c0-14.1-11.5-25.6-25.6-25.6h-92.5l-37-28.7c-9.1-7.1-22-7.1-31.1,0l-37,28.7h-92.5
				c-14.1,0-25.6,11.5-25.6,25.6v66.1l-82,63.7c-0.1,0.1-0.2,0.3-0.3,0.4c-0.4,0.4-0.8,0.8-1.1,1.3c-0.3,0.4-0.6,0.8-0.9,1.3
				c-0.2,0.5-0.4,1-0.5,1.5c-0.2,0.6-0.3,1.1-0.3,1.7c0,0.2-0.1,0.3-0.1,0.5v290.2c0,5.4,1.8,10.7,5,15.1c0.1,0.1,0.1,0.2,0.1,0.2
				c0.1,0.1,0.2,0.1,0.3,0.2c4.8,6.3,12.3,10,20.2,10.1h460.8c8,0,15.4-3.8,20.2-10.1c0.1-0.1,0.2-0.1,0.2-0.2
				c0.1-0.1,0.1-0.2,0.1-0.2c3.2-4.4,5-9.6,5-15.1V196.2C512,196.1,511.9,195.9,511.9,195.7z M250.9,18.8c3-2.4,7.2-2.4,10.2,0
				l19.7,15.3h-49.5L250.9,18.8z M27.7,494.9l223.1-173.3c3-2.4,7.2-2.4,10.2,0l223.2,173.3H27.7z M494.9,481.6L271.5,308.1
				c-9.1-7.1-22-7.1-31.1,0L17,481.6V209.2l139.8,108.6c3.7,2.9,9.1,2.2,12-1.5s2.2-9.1-1.5-12L25.3,194l60-46.7v65.9
				c0,4.7,3.8,8.5,8.5,8.5c4.7,0,8.5-3.8,8.5-8.5V59.7c0-4.7,3.8-8.5,8.5-8.5H401c4.7,0,8.5,3.8,8.5,8.5v153.6
				c0,4.7,3.8,8.5,8.5,8.5s8.5-3.8,8.5-8.5v-65.9l60,46.7L344.4,304.5c-2.4,1.9-3.7,4.9-3.3,7.9s2.4,5.6,5.3,6.8
				c2.8,1.1,6.1,0.7,8.5-1.2l140.1-108.8L494.9,481.6L494.9,481.6z"/>
			<path d="M358.4,204.8v-34.1c0-56.6-45.8-102.4-102.4-102.4s-102.4,45.8-102.4,102.4S199.4,273,256,273c4.7,0,8.5-3.8,8.5-8.5
				s-3.8-8.5-8.5-8.5c-47.1,0-85.3-38.2-85.3-85.3s38.2-85.3,85.3-85.3s85.3,38.2,85.3,85.3v34.1c0,9.4-7.6,17.1-17.1,17.1
				s-17.1-7.6-17.1-17.1v-34.1c0-4.7-3.8-8.5-8.5-8.5s-8.5,3.8-8.5,8.5c0,18.9-15.3,34.1-34.1,34.1s-34.1-15.3-34.1-34.1
				s15.3-34.1,34.1-34.1c4.7,0,8.5-3.8,8.5-8.5s-3.8-8.5-8.5-8.5c-22.9-0.1-43.1,15.1-49.4,37.2s2.8,45.6,22.3,57.6
				s44.6,9.6,61.5-5.8c1.9,18,17.5,31.5,35.7,30.5C344.3,237.9,358.4,222.9,358.4,204.8z"/>
		</g>
	</g>
</g>
</svg>
