<svg xmlns="http://www.w3.org/2000/svg" width="75" height="77" viewBox="0 0 75 77"><g><g><path fill="#ced8dd" d="M42.025 33.85c15.694 16.11 20.457 22.697 15.181 27.276-5.776 5.014 4.496 9.351 9.27 15.873 0 0 .643-4.87-.44-9.516 3.235.888 8.953.781 8.953.781-4.773-6.522-15.047-10.858-9.27-15.873 5.276-4.58.513-11.166-15.181-27.276C34.845 9.006 28.428 4.117 23.965 9.53 19.078 15.458 14.854 4.913 8.5.013c0 0-.106 5.87.76 9.19C4.733 8.09-.013 8.748-.013 8.748c6.354 4.9 10.579 15.446 15.465 9.518 4.463-5.413 10.88-.525 26.573 15.584z"/><path fill="#ff8400" d="M42.025 33.85c15.694 16.11 20.457 22.697 15.181 27.276-5.776 5.014 4.496 9.351 9.27 15.873 0 0 .643-4.87-.44-9.516 3.235.888 8.953.781 8.953.781-4.773-6.522-15.047-10.858-9.27-15.873 5.276-4.58.513-11.166-15.181-27.276C34.845 9.006 28.428 4.117 23.965 9.53 19.078 15.458 14.854 4.913 8.5.013c0 0-.106 5.87.76 9.19C4.733 8.09-.013 8.748-.013 8.748c6.354 4.9 10.579 15.446 15.465 9.518 4.463-5.413 10.88-.525 26.573 15.584z"/></g></g></svg>