<svg xmlns="http://www.w3.org/2000/svg" xmlns:xlink="http://www.w3.org/1999/xlink" x="0px" y="0px"
	 viewBox="0 0 512 512" style="enable-background:new 0 0 512 512;" xml:space="preserve">
<style type="text/css">
	.st0{fill:#F7CF7F;}
	.st1{fill:#F7CF7F;stroke:#F7CF7F;stroke-miterlimit:10;}
</style>
	<g id="Layer_1">
	<g id="Слой_3">
		<path class="st0" d="M380.9,153.8c-20.8-3.9-41.5-7.9-62.4-11.5c-10.9-2.1-21.9-4.4-32.8-6.7c-0.2,0-0.4-0.1-0.6-0.1
			c2.4-0.4,4.6-1.2,6.3-2.7c7,0.9,14,1.8,21,2.6c1.8,0.2,3.1-0.6,4-1.9c5.3,0.8,10.5,1.6,15.8,2.3c6.2,0.9,9.1-8.2,2.7-9.6
			c-3.7-0.9-7.4-1.7-11.1-2.5c3.7-1.8,2.4-7.9-1.3-9.2c-1.9-0.7-3.8-1.4-5.7-2.1c0.5-0.4,0.8-0.9,1.1-1.5c8.5,1.1,17,1.7,25.6,1.9
			c2.4,0.1,4-1.5,4.6-3.5c0.7,0.1,1.4,0.2,2,0.3c6.3,1,9-8.5,2.7-9.6c-5.2-0.9-10.5-1.8-15.8-2.7c1.4-2.6,0.7-6.7-2.8-7.7
			c-3.1-0.8-6.1-1.6-9.2-2.4c-0.6-1-1.5-1.7-3.1-2c-0.9-0.2-1.7-0.3-2.6-0.5c-4.4-1.3-8.8-2.4-13.2-3.3c1.5,0.2,3,0.4,4.5,0.6
			c5.5,0.7,6.9-8.9,1.3-9.8c-4.7-0.8-9.4-1.4-14.2-1.9c-7.4-1-14.9-2.1-22.3-3.4c-0.6-0.3-1.2-0.5-1.9-0.5c-1-0.1-2.1-0.2-3.1-0.3
			c-2.3-0.4-4.5-0.8-6.8-1.2c-11.5-6.2-24.6-9-37.9-7.4c-1.9,0.2-3.3,1.4-4.2,2.9c-7.1-0.9-14.4-1.2-21.7-1.1
			c-6.5,0.1-6.3,9.3-0.1,10c-5.3-0.5-10.6-1.1-15.9-1.7c-0.8-5.1-4-9.8-9.4-12.3c-9.4-4.4-21.5-0.6-24.4,9.9
			c-0.5,1.7-0.7,3.6-0.6,5.4c-5.4-0.2-10.8,0-16,1c0,0,0,0,0-0.1c0.8-1.4,1.6-2.8,2.4-4.3c2,0,4.1-1,5-3.4c0.1-0.3,0.2-0.6,0.4-0.9
			c1.7-3.9,5.4-6.5,9.7-6.7c6.4-0.3,6.4-10.3,0-10c-1.2,0.1-2.3,0.2-3.4,0.4c0.3-0.8,0.6-1.7,1-2.5c2.1-5.3-6.4-8.7-9.1-3.9
			c-2.2,4-4.4,7.9-6.6,11.9c-0.3-2.1-0.7-4.3-1.2-6.4c-0.4-1.8-1.8-3-3.4-3.4c-1.2-1.6-3.2-2.6-5.1-2.2c0.2-0.2,0.3-0.4,0.5-0.6
			c2.5-3.2,1-6.8-1.6-8c-0.2-1-0.7-1.9-1.3-2.5c8.9-1.6,18.1-2,27.4-0.7c20.7,3,40,12.1,58.7,21c5.7,2.7,10.8-5.6,5-8.6
			c-0.7-0.4-1.4-0.7-2.1-1.1c2.6-1.9,2.8-6.5-0.4-8.4c-9.9-5.8-20.5-10.1-31.6-12.8c-1-0.5-2-1.1-3-1.5c-5.2-2.5-10.6-4.5-16.4-4.8
			c-6.9-0.4-11.5,3.2-17.8,4.8c-3.9,1-7.5-0.9-11.3-1.7c-3.4-0.7-6.9-0.8-10.3,0.2c-3.9,1.2-7.3,3.5-10.3,6.2c-4,1.1-8.1,2.4-12.1,4
			c-16.9,6.6-35.1,14.4-48.8,26.5C33.4,65.1,27,84.5,20.1,101.8c-8.5,21.6-15.4,44.4-13,67.8c0.5,4.6,6.7,7.2,9.3,2.5
			c3.6-6.5,6.1-13.4,8-20.4c2.6,1.4,6.3,0.8,7.1-2.9c3-13.4,6.3-27.9,12.3-40.9c0.6,0.5,1.3,0.8,2,0.9c-1.5,2.1-3.1,4.2-4.6,6.3
			c-3,4.1,1.7,8,5.7,7c-0.5,7.4-0.4,14.8,0.4,22.2c0.2,2.4,1.8,4.1,3.7,4.7c-0.9,1.6-1.8,3.2-2.7,4.8c-2.7,5,3.7,10,7.9,6.1
			c2-1.9,3.9-3.8,5.8-5.7c-1.6,3.3-3.3,6.6-4.9,9.8c-2.5,4.9,3.7,10.3,7.9,6.1c4.7-4.8,9.2-9.8,13.5-15c-1.7,6.3-3.4,12.7-5.1,19
			c-1.5,5.4,6.3,8.9,9.1,3.9c2.3-4,4.4-8.1,6.5-12.2c-1.1,6-2.1,11.9-3.2,17.9c-1,5.8,5.7,8.4,9.1,3.9l0.8-1.1
			c0.6-0.2,1.3-0.6,1.9-1.1c3.1-2.5,5.7-5.3,8.1-8.3c-0.2,0.4-0.5,0.8-0.7,1.2c-3.5,5.6,4.9,10,8.6,5c2.2-3,4.5-6,6.7-9
			c-1.7,6.2-3.4,12.3-4.9,18.5c-1.5,5.7,5.9,8.3,9.1,3.9c12.4-17.3,22.5-36.2,30.1-56.1c24.7,4.1,49.6,7,74.6,8.7
			c11.1,2.5,22.4,4.4,33.7,5.8c5.6,0.7,6.8-8.6,1.3-9.8c-3.9-0.9-7.7-1.7-11.6-2.6c0,0-0.1-0.1-0.1-0.1c21.2,2.6,42.3,5.9,63.4,9.5
			c20.7,4.1,41.4,7.9,62.1,11.4C384.5,164.6,387.3,155.1,380.9,153.8z M92.7,79.6c0.9-2.3,1.9-4.7,2.9-6.9c0.6-0.6,1.2-1.3,1.8-1.9
			c-0.1,1.9,0.7,3.4,2,4.3c-2.4,1.7-4.7,3.4-7,5.2C92.5,80.1,92.6,79.9,92.7,79.6z M101.9,46.3C101.9,46.3,101.9,46.3,101.9,46.3
			c0-0.8,0-1.6,0.1-2.5c0.5-0.6,1-1.2,1.5-1.8c1-0.6,2-1.3,3.1-1.9c0.1-0.1,0.2-0.1,0.3-0.2c-0.5,0.9-0.9,1.8-1.4,2.7
			C104.3,43.9,103.1,45.1,101.9,46.3z M96.5,115.6c0,0.4,0,0.7,0,1.1l-4,4.3c-0.9,0.9-1.3,2-1.3,3.1c-0.4-0.1-0.7-0.1-1.1-0.1
			C92,121.1,94.1,118.3,96.5,115.6z M124.2,64.5c-1.3,0.8-2.7,1.6-4,2.4c-0.6-0.4-1.3-0.6-2-0.8c1.8-2.5,3.6-5,5.6-7.4
			C123.9,60.6,124.1,62.5,124.2,64.5z M57.6,116.1c1.4-0.9,2.9-1.7,4.3-2.6c0.5,2.8,1.7,5.4,3.8,7.9c0.1,0.1,0.2,0.2,0.3,0.3
			c-2.9,3.9-6,7.7-9.3,11.3C56.6,127.3,56.9,121.7,57.6,116.1z M163,65.3c-0.6-0.1-1.1,0-1.5,0.1c3-2.9,8.7-2,11.4,1.1
			C169.6,66.1,166.3,65.7,163,65.3z"/>
		<rect x="75" y="38" class="st1" width="266" height="373"/>
		<rect x="186" y="327" class="st1" width="239" height="161"/>
		<rect x="263" y="183" class="st1" width="219" height="264"/>
		<rect x="314" y="66" class="st1" width="89.6" height="144"/>
		<rect x="379" y="115" class="st1" width="75" height="95"/>
		<rect x="439" y="147" class="st1" width="37.3" height="51.9"/>
		<rect x="384.5" y="94" class="st1" width="48.5" height="37"/>
		<rect x="122" y="24" class="st1" width="64" height="32"/>
		<rect x="223" y="24" class="st1" width="91" height="57"/>
		<rect x="195.6" y="27.8" class="st1" width="52.4" height="38.2"/>
		<rect x="327" y="52.5" class="st1" width="49" height="36.2"/>
		<rect x="321.8" y="40" class="st1" width="37" height="37"/>
		<rect x="384.5" y="88.7" class="st1" width="40.5" height="26.3"/>
		<rect x="372.5" y="77" class="st1" width="36.3" height="36.3"/>
		<rect x="27" y="101.9" class="st1" width="102" height="213.1"/>
		<rect x="95" y="70.6" class="st1" width="27" height="137.8"/>
		<rect x="12" y="162.5" class="st1" width="20.5" height="20.5"/>
		<rect x="71" y="138" class="st1" width="20.5" height="20.5"/>
		<rect x="15.8" y="138" class="st1" width="26.2" height="35"/>
		<rect x="34" y="303" class="st1" width="82" height="55"/>
		<rect x="65.5" y="337.5" class="st1" width="63.5" height="63.5"/>
		<rect x="42" y="337.5" class="st1" width="39.2" height="26.5"/>
		
			<rect x="52" y="337.5" transform="matrix(0.9018 -0.4322 0.4322 0.9018 -149.0975 63.427)" class="st1" width="26" height="44.5"/>
		<rect x="91.5" y="401" class="st1" width="130.3" height="26.5"/>
		<rect x="167" y="414.3" class="st1" width="41" height="67.7"/>
		<rect x="129" y="414.3" class="st1" width="47.4" height="47.4"/>
		<rect x="195.6" y="461.6" class="st1" width="0" height="20.4"/>
		<rect x="108.5" y="419" class="st1" width="32.5" height="28"/>
		<rect x="156.6" y="455" class="st1" width="25.4" height="13"/>
		<rect x="314" y="471.8" class="st1" width="89.6" height="24.2"/>
		<rect x="408.8" y="437.9" class="st1" width="34.2" height="50.1"/>
		<rect x="433" y="436.9" class="st1" width="43.3" height="24.6"/>
		<rect x="416.5" y="448.1" class="st1" width="41.1" height="23.7"/>
		<rect x="443" y="308" class="st1" width="50" height="119.5"/>
	</g>
	<g>
		<g>
			<g>
				<path d="M496.6,300.4c2.6-14.5,4.3-29,4.3-43.5c0-134-109.2-243.2-243.2-243.2c-14.5,0-29,1.7-43.5,4.3C192.9,6,169,0,144.2,0
					C64.9,0,0,64.9,0,144.2c0,23.9,6,48.6,17.9,70c-2.6,14.5-4.3,29-4.3,43.5c0,134,109.2,243.2,243.2,243.2c14.5,0,29-1.7,43.5-4.3
					c18.8,10.2,41.8,15.4,70,15.4c79.4,0,141.7-62.3,141.7-141.7C512,342.2,506.9,319.1,496.6,300.4z M370.3,494.9
					c-26.5,0-46.9-5.1-64-14.5l-2.6-1.7l-3.4,0.9c-14.5,2.6-29,4.3-43.5,4.3c-124.6,0-226.1-101.5-226.1-226.1
					c0-14.5,1.7-29,4.3-43.5l0.9-3.4l-1.7-2.6c-11.1-19.6-17.1-41.8-17.1-64c0-70,57.2-127.1,127.1-127.1c22.2,0,44.4,6,64,17.1
					l2.6,1.7l3.4-0.9c14.5-2.6,29-4.3,43.5-4.3c124.6,0,226.1,101.5,226.1,226.1c0,14.5-1.7,29-4.3,43.5l-0.9,3.4l1.7,2.6
					c9.4,17.1,14.5,37.5,14.5,64C494.9,440.3,440.3,494.9,370.3,494.9z"/>
				<path d="M278.2,215c-64-12.8-73.4-29-74.2-33.3c-1.7-6,2.6-11.1,6.8-14.5c11.1-9.4,37.5-17.1,60.6-12.8
					c8.5,1.7,20.5,6,26.5,16.2c14.5,28.2,29.9,50.3,61.4,42.7c10.2-2.6,17.9-9.4,23-19.6c6-13.7,6-32.4-1.7-46.9
					c-8.5-16.2-45.2-58-116.9-58c-68.3,0-146.8,24.7-146.8,94.7c0,55.5,48.6,94.7,133.1,106.7c42.7,6,56.3,19.6,60.6,27.3
					c2.6,5.1,2.6,10.2,0.9,15.4c-6.8,16.2-29.9,31.6-65.7,28.2c-41-4.3-54.6-41-57.2-48.6c-6.8-21.3-29.9-24.7-41.8-23.9
					c-6,0.9-19.6,5.1-28.2,17.9c-5.1,7.7-10.2,22.2-2.6,44.4c9.4,29,41,76.8,145.9,76.8c87.9,0,140.8-55.5,141.7-106.7
					C403.6,264.5,365.2,232.1,278.2,215z M261.1,410.5c-70,0-116.1-23-129.7-64.9c-4.3-12.8-4.3-23,0.9-29.9s12.8-10.2,16.2-10.2
					c0,0,0.9,0,2.6,0c5.1,0,17.9,0.9,19.6,11.1c3.4,9.4,20.5,55.5,71.7,60.6c45.2,4.3,74.2-17.1,83.6-39.3
					c4.3-10.2,3.4-21.3-1.7-30.7c-6.8-12.8-25.6-29-72.5-35.8c-44.4-6.8-118.6-26.5-118.6-89.6c0-57.2,70-77.7,129.7-77.7
					c63.1,0,94.7,35,101.5,48.6c4.3,9.4,5.1,23,0.9,32.4c-2.6,6-6.8,9.4-11.9,10.2c-15.4,3.4-24.7,0-42.7-34.1
					c-6.8-12.8-20.5-21.3-38.4-24.7c-26.5-4.3-58.9,2.6-75.1,17.1c-10.2,9.4-14.5,20.5-11.9,31.6c6,20.5,34.1,35,87.9,45.2
					c98.1,19.6,111.8,55.5,111.8,88.7C384.9,363.5,338.8,410.5,261.1,410.5z"/>
			</g>
		</g>
	</g>
</g>
</svg>
