<svg xmlns="http://www.w3.org/2000/svg" xmlns:xlink="http://www.w3.org/1999/xlink" x="0px" y="0px"
	 viewBox="0 0 52.5 52.5" style="enable-background:new 0 0 52.5 52.5;" xml:space="preserve">
<style type="text/css">
	.st0{fill:#F7CF7F;}
</style>
<g id="Слой_2">
	<ellipse class="st0" cx="26.3" cy="23.5" rx="24" ry="23"/>
	<rect x="16.3" y="42.8" class="st0" width="6.2" height="2.1"/>
	<rect x="16.3" y="41.7" class="st0" width="1.6" height="8.5"/>
	<rect x="15.5" y="41" transform="matrix(-0.5 -0.866 0.866 -0.5 -10.2149 82.9295)" class="st0" width="6.7" height="6.7"/>
	<ellipse class="st0" cx="24.9" cy="23.5" rx="21.8" ry="23"/>
	<circle class="st0" cx="13.6" cy="34.9" r="7.9"/>
	<ellipse class="st0" cx="35.4" cy="37.1" rx="10.5" ry="7.3"/>
	<ellipse class="st0" cx="39" cy="13.5" rx="7.7" ry="9.2"/>
</g>
<g>
	<g>
		<path d="M31.3,0h-10c-10.5,0-19,8.5-19,19v9c0,7.8,4.8,14.8,12,17.7v5.8c0,0.4,0.2,0.8,0.6,0.9c0.1,0.1,0.3,0.1,0.4,0.1
			c0.2,0,0.5-0.1,0.7-0.3l5.8-5.3h9.5c10.5,0,19-8.5,19-19v-9C50.3,8.5,41.7,0,31.3,0z M48.3,28c0,9.4-7.6,17-17,17h-9.9
			c-0.2,0-0.5,0.1-0.7,0.3l-4.4,4V45c0-0.4-0.3-0.8-0.7-0.9C8.8,41.6,4.3,35.2,4.3,28v-9c0-9.4,7.6-17,17-17h10c9.4,0,17,7.6,17,17
			V28z"/>
		<path d="M39.5,30.5l-6.1-4c-0.7-0.4-1.5-0.6-2.3-0.4c-0.8,0.2-1.5,0.6-1.9,1.3l-0.3,0.4c-2.7-0.9-5.6-2-7.3-7.1l0.7-0.6l0,0
			c1.2-1.1,1.4-3,0.3-4.2l-4.8-5.5c-0.4-0.4-1-0.5-1.4-0.1l-3,2.6c-2.6,2.3-1.4,5.7-1,6.8c0,0,0,0.1,0.1,0.1
			c0.1,0.2,2.6,4.7,6.7,8.8c4.1,4.1,11.4,8,11.6,8.1c0.8,0.5,1.8,0.8,2.7,0.8c1.6,0,3.2-0.8,4.2-2.3l2.2-3.4
			C40.1,31.4,39.9,30.8,39.5,30.5z M35.9,34.1c-0.9,1.4-2.8,1.8-4.2,0.8c-0.1,0-7.4-3.8-11.2-7.8c-3.6-3.7-6-7.7-6.3-8.3
			c-0.8-2.2-0.7-3.6,0.5-4.6l2.3-2l4.2,4.8c0.4,0.4,0.3,1-0.1,1.4l-1.2,1.1c-0.3,0.3-0.4,0.7-0.3,1c2.1,6.8,6.2,8.1,9.1,9.1L29,30
			c0.4,0.1,0.9,0,1.2-0.4l0.7-1.1c0.1-0.2,0.4-0.4,0.6-0.4c0.3-0.1,0.5,0,0.8,0.1l5.3,3.4L35.9,34.1z"/>
		<path d="M28.5,16.2c-0.5-0.2-1.1,0.2-1.2,0.7c-0.2,0.5,0.2,1.1,0.7,1.2c1.5,0.4,2.7,1.6,3.1,3.1c0.1,0.4,0.5,0.7,1,0.7
			c0.1,0,0.2,0,0.3,0c0.5-0.1,0.8-0.7,0.7-1.2C32.4,18.6,30.7,16.9,28.5,16.2z"/>
		<path d="M36.1,22.2c0.1,0,0.2,0,0.3,0c0.5-0.1,0.8-0.7,0.7-1.2c-1.2-4.2-4.5-7.5-8.7-8.7c-0.5-0.2-1.1,0.2-1.2,0.7
			c-0.2,0.5,0.2,1.1,0.7,1.2c3.5,1,6.3,3.8,7.3,7.3C35.3,21.9,35.7,22.2,36.1,22.2z"/>
		<path d="M28,7.6c-0.5-0.2-1.1,0.2-1.2,0.7c-0.2,0.5,0.2,1.1,0.7,1.2c6,1.7,10.7,6.5,12.4,12.4c0.1,0.4,0.5,0.7,1,0.7
			c0.1,0,0.2,0,0.3,0c0.5-0.1,0.8-0.7,0.7-1.2C39.9,14.8,34.6,9.5,28,7.6z"/>
	</g>
</g>
</svg>
