<svg xmlns="http://www.w3.org/2000/svg" viewBox="0 0 630.64 55.34"><defs><style>.cls-1{isolation:isolate;}.cls-2{fill:#fff;}</style></defs><g class="cls-1"><path class="cls-2" d="M34.53,43.18H31l-4.9-25.63L14.88,54.84H-1L15.09,1.2H31.22a8.87,8.87,0,0,1,2.59.4,8.42,8.42,0,0,1,2.38,1.15A8,8,0,0,1,38,4.52a6,6,0,0,1,1,2.3l2.38,12.31,10.3-13a13.63,13.63,0,0,1,4.54-3.64A12.11,12.11,0,0,1,61.75,1.2H76.22L60.17,54.84H44L55.13,18.2Z" transform="translate(1.03 -0.7)"/><path class="cls-2" d="M124.75,29a114.71,114.71,0,0,1-5.54,15.73,15.93,15.93,0,0,1-5.33,6.48,18.49,18.49,0,0,1-7.7,3.24q-3.38.58-6.73.86t-6.73.29q-2.45,0-5.11-.11A38.22,38.22,0,0,1,82.34,55a25.36,25.36,0,0,1-4.86-1.37,12.32,12.32,0,0,1-3.92-2.45,9.64,9.64,0,0,1-2.48-3.82,12.76,12.76,0,0,1-.54-5.51,62.34,62.34,0,0,1,1.26-7.74q.9-4,2.09-8t2.56-7.74q1.37-3.78,2.74-7.09a12.54,12.54,0,0,1,2.41-3.67,16.44,16.44,0,0,1,4.68-3.42,30.27,30.27,0,0,1,7.52-2.52,53,53,0,0,1,10.94-1q3.17,0,6.88.14a30.61,30.61,0,0,1,7.06,1.08,16.7,16.7,0,0,1,5.94,3,10.37,10.37,0,0,1,3.53,5.94V12.8A140.28,140.28,0,0,1,124.75,29Zm-16.63-.72A106,106,0,0,0,111.29,16a3.15,3.15,0,0,0-.36-2.63,4.23,4.23,0,0,0-2-1.44,11,11,0,0,0-2.77-.61q-1.51-.14-2.59-.14t-2.66.14a12,12,0,0,0-2.77.61,8.68,8.68,0,0,0-2.41,1.3,4.78,4.78,0,0,0-1.58,2.2q-2.16,5.62-4,11.59t-3.17,12.1a4.87,4.87,0,0,0,0,2.56A4.12,4.12,0,0,0,88,43.58a4.82,4.82,0,0,0,2,1.12,6.89,6.89,0,0,0,2.66.22q1.37,0,3.13-.11a17.2,17.2,0,0,0,3.38-.54,8,8,0,0,0,2.84-1.37,4.28,4.28,0,0,0,1.58-2.59Q106.17,34.32,108.12,28.31Z" transform="translate(1.03 -0.7)"/><path class="cls-2" d="M168.67,32.31l9.5-31.1h15.41L177.52,54.84H158.37l-7.56-37.3-11.23,37.3H123.67L139.8,1.2h16.13a8.87,8.87,0,0,1,2.59.4,8.42,8.42,0,0,1,2.38,1.15,8,8,0,0,1,1.84,1.76,6,6,0,0,1,1,2.3Z" transform="translate(1.03 -0.7)"/><path class="cls-2" d="M205.39,1.2h16.06l-16.2,53.64H189Z" transform="translate(1.03 -0.7)"/><path class="cls-2" d="M234.58,40.73a3.4,3.4,0,0,0,1.84,1,81.62,81.62,0,0,0,12.06.83,64,64,0,0,0,11.92-1.19L256.58,54.7a114.41,114.41,0,0,1-30,.65A9.63,9.63,0,0,1,221,53.12a11.93,11.93,0,0,1-3.2-4.54,18.69,18.69,0,0,1-1.3-5.76,23.19,23.19,0,0,1,.29-5.83q.57-3,1.44-6.91a79.11,79.11,0,0,1,2.2-7.88,70.67,70.67,0,0,1,3.13-7.81,31.81,31.81,0,0,1,4.28-6.8,20.52,20.52,0,0,1,5.65-4.79,14.32,14.32,0,0,1,7.2-1.8h31.82l-3.89,12.89H244.84a3.62,3.62,0,0,0-2,.61A4.23,4.23,0,0,0,241.39,16a57.58,57.58,0,0,0-4.9,11.05A58.8,58.8,0,0,0,234,38.93,2.07,2.07,0,0,0,234.58,40.73Z" transform="translate(1.03 -0.7)"/><path class="cls-2" d="M299.56,28.06H287.83l-8.14,26.78h-16.2l8-26.21a28.28,28.28,0,0,0-6.62,2.16,14.19,14.19,0,0,0-4.61,3.46.78.78,0,0,1-.9.36c-.36-.09-.49-.31-.4-.65q1.73-3.24,3.35-5.94a32.85,32.85,0,0,1,3.46-4.79,19.91,19.91,0,0,1,4-3.53,15.27,15.27,0,0,1,5.08-2.09l5-16.42H296l-4.68,15.48H303l4.75-15.55H323.9L307.63,54.77H291.36Z" transform="translate(1.03 -0.7)"/><path class="cls-2" d="M321.16,31h26.5L344.42,41.6H318Z" transform="translate(1.03 -0.7)"/><path class="cls-2" d="M396.69,13.88H383.3l-12.38,41H354.64l12.53-41a68.59,68.59,0,0,0-9.11.25,22.9,22.9,0,0,0-5.69,1.26,10.79,10.79,0,0,0-3.49,2.09,26,26,0,0,0-2.45,2.66.82.82,0,0,1-.9.29q-.54-.14-.4-.65,2.38-4.54,4.68-8.06a24.62,24.62,0,0,1,5.36-5.94,21.14,21.14,0,0,1,7.27-3.64A36.67,36.67,0,0,1,372.93,1v.14h27.65Z" transform="translate(1.03 -0.7)"/><path class="cls-2" d="M422.25,39.58h-9.94l-4.61,15.26H392.16L408.36,1.2H435.5a21.45,21.45,0,0,1,5.47.72,15.22,15.22,0,0,1,4.9,2.23A12.23,12.23,0,0,1,449.4,8a10.39,10.39,0,0,1,1.37,5.4,29.89,29.89,0,0,1-1.19,8.35,28.08,28.08,0,0,1-3.56,7.7,31.31,31.31,0,0,1-3.92,4.93,19.78,19.78,0,0,1-5,3.78l5.47,16.7H427.44Zm1.3-11a16.21,16.21,0,0,0,3.35-.29,8,8,0,0,0,2.23-.79,5.79,5.79,0,0,0,1.51-1.19l1.26-1.4a13.2,13.2,0,0,0,2.56-4,12.59,12.59,0,0,0,.9-4.75,5.5,5.5,0,0,0-.32-1.8,6.05,6.05,0,0,0-.9-1.69,4.59,4.59,0,0,0-1.4-1.22,3.67,3.67,0,0,0-1.84-.47H421l-5.33,17.64Z" transform="translate(1.03 -0.7)"/><path class="cls-2" d="M471.43,43.47l-6.48,11.38H448l26.06-43.49a28.72,28.72,0,0,1,4.36-5.72,19.76,19.76,0,0,1,3.92-3.06,10,10,0,0,1,3.1-1.22,13,13,0,0,1,1.8-.22h15.55V54.84h-14.9V43.47Zm16.78-9.72V13.52L476.9,33.75Z" transform="translate(1.03 -0.7)"/><path class="cls-2" d="M552.57,32.31l9.5-31.1h15.41L561.43,54.84H542.27l-7.56-37.3-11.23,37.3H507.57L523.7,1.2h16.13a8.87,8.87,0,0,1,2.59.4,8.4,8.4,0,0,1,2.38,1.15,8,8,0,0,1,1.84,1.76,5.92,5.92,0,0,1,1,2.3Z" transform="translate(1.03 -0.7)"/><path class="cls-2" d="M576.26,42.24h21.17a32,32,0,0,0,4.1-.25,10.56,10.56,0,0,0,3.38-1,3.73,3.73,0,0,0,1.94-2.23A3.35,3.35,0,0,0,607,36.2a5.33,5.33,0,0,0-2-1.51q-1.3.07-3.17.07t-4-.11q-2.13-.11-4.32-.36a24.05,24.05,0,0,1-4-.79,14.63,14.63,0,0,1-3.2-1.33,4.18,4.18,0,0,1-1.87-2q-.58-1.29-1.15-2.88a20.39,20.39,0,0,1-.9-3.38,16.51,16.51,0,0,1-.22-3.82A15,15,0,0,1,583,16a20.64,20.64,0,0,0-3.64,1.84,11,11,0,0,0-2.7,2.41.59.59,0,0,1-.36.22.84.84,0,0,1-.79,0,.44.44,0,0,1-.29-.61,85.48,85.48,0,0,1,4.75-8.06,25.53,25.53,0,0,1,5.47-5.94,22,22,0,0,1,7.34-3.67A36.1,36.1,0,0,1,603.26,1h26.35l-3.1,13H603.4A17.42,17.42,0,0,0,599,15a4.39,4.39,0,0,0-2.56,2.38,3.89,3.89,0,0,0-.32,3A3.43,3.43,0,0,0,598,22.16a4.37,4.37,0,0,0,1.15.4,9.85,9.85,0,0,0,1.37.14c.53,0,1.15,0,1.87,0H605a37.12,37.12,0,0,1,9.86,1A9.25,9.25,0,0,1,620,27.2a9.18,9.18,0,0,1,1.51,5.08,17.53,17.53,0,0,1-1.08,6.66,34.52,34.52,0,0,1-3.85,8.1,15.54,15.54,0,0,1-6.52,5.65,20.68,20.68,0,0,1-6.62,1.69,96.76,96.76,0,0,1-10.58.47H573.16Z" transform="translate(1.03 -0.7)"/></g></svg>