<?xml version="1.0" encoding="utf-8"?>
<!-- Generator: Adobe Illustrator 21.0.0, SVG Export Plug-In . SVG Version: 6.00 Build 0)  -->
<svg version="1.1" id="Слой_1" xmlns="http://www.w3.org/2000/svg" xmlns:xlink="http://www.w3.org/1999/xlink" x="0px" y="0px"
	 viewBox="0 0 1280 732" style="enable-background:new 0 0 1280 732;" xml:space="preserve">
<style type="text/css">
	.st0{fill:url(#SVGID_1_);}
	.st1{fill:url(#SVGID_2_);}
	.st2{fill:url(#SVGID_3_);}
	.st3{fill:url(#SVGID_4_);}
	.st4{fill:url(#SVGID_5_);}
	.st5{fill:url(#SVGID_6_);}
	.st6{fill:url(#SVGID_7_);}
	.st7{fill:url(#SVGID_8_);}
	.st8{fill:url(#SVGID_9_);}
	.st9{fill:url(#SVGID_10_);}
	.st10{fill:url(#SVGID_11_);}
	.st11{fill:url(#SVGID_12_);}
	.st12{fill:url(#SVGID_13_);}
	.st13{fill:url(#SVGID_14_);}
	.st14{fill:url(#SVGID_15_);}
	.st15{fill:url(#SVGID_16_);}
	.st16{fill:url(#SVGID_17_);}
	.st17{fill:url(#SVGID_18_);}
	.st18{fill:url(#SVGID_19_);}
	.st19{fill:url(#SVGID_20_);}
	.st20{fill:url(#SVGID_21_);}
	.st21{fill:url(#SVGID_22_);}
	.st22{fill:url(#SVGID_23_);}
	.st23{fill:url(#SVGID_24_);}
	.st24{fill:url(#SVGID_25_);}
	.st25{fill:url(#SVGID_26_);}
	.st26{fill:url(#SVGID_27_);}
	.st27{fill:url(#SVGID_28_);}
	.st28{fill:url(#SVGID_29_);}
	.st29{fill:url(#SVGID_30_);}
	.st30{fill:url(#SVGID_31_);}
	.st31{fill:url(#SVGID_32_);}
	.st32{fill:url(#SVGID_33_);}
	.st33{fill:url(#SVGID_34_);}
	.st34{fill:url(#SVGID_35_);}
	.st35{fill:url(#SVGID_36_);}
	.st36{fill:url(#SVGID_37_);}
	.st37{fill:url(#SVGID_38_);}
	.st38{fill:url(#SVGID_39_);}
</style>
<g transform="translate(0.000000,732.000000) scale(0.100000,-0.100000)">
	<linearGradient id="SVGID_1_" gradientUnits="userSpaceOnUse" x1="3380.0767" y1="6190.5" x2="3616.9919" y2="6190.5">
		<stop  offset="0" style="stop-color:#000000"/>
		<stop  offset="0" style="stop-color:#EBEBEB"/>
		<stop  offset="0" style="stop-color:#A85700"/>
		<stop  offset="0.9926" style="stop-color:#FF8400"/>
	</linearGradient>
	<path class="st0" d="M4467.2,7270.9c-59-20-114-31-178-35c-51-3-95-10-98-14c-3-5-16-9-29-9c-19,0-23-4-18-17c5-15,3-15-11,2
		c-13,14-19,16-23,7c-8-20-61-43-86-37c-39,10-97-20-97-50c0-5,5-3,10,5s10,10,10,4s-6-17-14-24c-8-6-12-18-9-26c6-17-14-44-33-44
		c-8,0-14,9-13,23c1,17,2,18,6,4c6-22,27-17,31,6c3,12-4,17-22,17c-14,0-29,6-33,13c-11,16-49,46-40,30c8-13-1-63-12-61
		c-3,1-35-13-71-30c-36-18-70-32-76-32c-8,0-7-23,4-76c10-48,18-71,23-62c5,7,9,9,9,4c0-17-50-75-70-81c-22-7-59,27-60,55
		c0,9-18,34-40,55s-40,44-40,50c0,13-50,36-63,28c-6-3-7-1-4,4c4,6-2,18-13,28c-19,17-19,16,1-25c24-49,19-89-12-97c-15-4-17-8-8-14
		c10-6,10-16,1-45c-6-21-10-39-9-40c1-2,29-4,61-6c54-3,61-6,78-33c10-16,18-39,18-50c-1-24-23-55-39-55c-13,0-5-40,9-50
		c7-5,23-46,25-62c0-3,3-10,8-14c10-11,9-42-3-46c-5-1-12-18-16-35c-6-29-3-34,22-43c16-6,31-15,34-19s41-15,85-24
		c140-29,131-30,170,24c30,42,32,50,19,57c-15,8-15,10,0,15c9,4,16,2,16-3c0-6,7-10,15-10s15,6,15,14s6,21,13,28c27,29,42,52,29,44
		c-8-5,10,17,40,47c29,30,66,58,81,61c20,5,33,18,46,47c20,44,93,112,122,114c10,1,30,12,44,25s27,21,30,18c10-10,26-121,18-128
		c-12-11-100-31-115-25c-7,2-26-7-41-20l-28-25l25-33c29-37,34-67,12-67c-30,0-25-106,6-135c7-7,47-15,89-18c81-5,114-19,124-52
		c3-11,9-83,12-160c5-119,3-146-11-172c-20-41-20-43,4-43c16,0,20-7,20-32c0-17-6-39-14-47c-7-9-17-26-20-38c-6-18-3-23,11-24
		c16,0,16-1-2-9c-19-8-19-9,3-9c18-1,22-7,22-36c0-18-6-38-12-42c-7-5-36-33-65-63l-52-55l19-35l18-35l-1,46c0,32,5,52,16,64
		c17,17,25,7,8-11c-11-11-18-114-10-129c15-25,48-156,54-215c4-36,11-70,16-75c4-6,9-37,11-68l3-58l35,38c21,22,25,30,10,18l-25-20
		l19,23c19,22,19,23,0,37c-10,8-15,15-11,15c14,0,74-66,82-90l8-24l14,27c7,15,18,27,23,27c6,0,10,6,10,13c0,8,18,42,40,76
		s35,59,28,55s-4,3,7,14c11,12,54,59,95,105c54,61,86,88,115,98c22,8,50,26,63,41s32,30,43,33c10,4,16,11,13,17c-4,6-2,8,4,5
		c14-9,43,3,36,14c-3,5,3,6,12,2c13-5,15-3,9,7c-5,8-4,11,2,7c17-11,214,80,253,116c11,9,23,18,27,20c5,1,6,6,5,12
		c-20,58-20,152,0,188c7,12,11,25,10,29c-1,5,4,7,11,5c6-1,11,4,9,11c-1,8,2,11,8,7c5-3,10-1,10,6s3,9,7,5c4-3,28,15,55,41
		c37,36,45,50,36,60c-6,7-8,16-4,20c3,4-6,20-21,35l-28,29l41,79c22,44,35,75,27,68c-15-13-15-13-35,25c-13,26-13,35,0,75
		c8,26,22,55,30,65c8,9,12,20,9,23c-3,4,2,14,11,23c10,9,13,14,7,11s2,7,19,21c16,14,26,31,23,36c-4,6,1,17,11,24c16,13,16,13,2-6
		c-14-18-14-19,2-7c9,8,15,19,12,26c-6,15,60,76,81,76c9,0,12,6,9,15c-4,8-1,22,5,29c10,11,8,16-7,20c-11,4-28,16-38,29
		c-13,14-14,18-3,9c19-14,19-15,74,73l37,60l-69-67c-68-68-98-82-110-52c-3,8-12,13-20,10s-12-2-9,3c3,4-8,21-24,36
		c-22,21-27,32-19,41s-1,17-34,32c-71,32-85,48-81,96c2,22,2,36-1,30c-5-9-19-8-56,1c-50,14-64,22-125,78l-32,29l-11-33
		c-9-25-8-35,1-42c9-6,8-7-4-3c-10,3-21-1-26-11c-5-8-33-19-62-25c-55-10-80-26-84-55c-2-9-11-18-21-19c-21-3-35-22-28-40
		c2-6-1-15-8-20c-9-5-11-2-6,8c8,21-3,30-19,17c-11-9-15-7-20,5c-6,15-7,15-19-1s-15-15-61,4c-37,16-63,19-105,16c-45-4-57-2-62,11
		c-8,21,9,30,30,16c15-9,14-10-6-4c-15,4-21,2-17-4c5-9,86-15,86-7c0,1-21,10-47,20c-59,23-73,36-66,63c4,16-1,24-21,33
		c-14,7-26,16-26,20s-14,10-31,14c-41,9-46,29-17,68c26,34,41,58,36,56C4553.2,7300.9,4514.2,7286.9,4467.2,7270.9z M4512.2,7252.9
		c-32-33-56-38-75-15c-10,12-9,15,4,15c10,0,14-4,11-10c-10-16,31-11,45,5c7,8,9,15,4,16c-8,0,23,16,35,18
		C4539.2,7282.9,4528.2,7269.9,4512.2,7252.9z M5206.2,7168.9l23-24l-25,2c-17,1-22,5-16,12c5,6,6,14,2,17c-3,4-12-1-19-11
		c-12-15-12-15-7,6C5171.2,7198.9,5178.2,7198.9,5206.2,7168.9z M3679.2,6975.9c-3-16-7-22-10-15c-4,13,4,42,11,42
		C3682.2,7002.9,3682.2,6990.9,3679.2,6975.9z M3690.2,6931.9c-6-6-7,3-4,23c4,28,6,29,9,9
		C3697.2,6950.9,3695.2,6936.9,3690.2,6931.9z M4839.2,6948.9c7,4,8,2,4-5c-10-15-26-4-25,17c1,15,2,15,6-1
		C4826.2,6950.9,4833.2,6945.9,4839.2,6948.9z M5482.2,6902.9c-3-5-20-10-37-10c-25,0-29-3-25-20c3-11,2-22-2-25c-5-2-8,8-7,23
		c1,23,6,28,36,33c19,4,36,7,38,8C5487.2,6911.9,5485.2,6908.9,5482.2,6902.9z M5676.2,6877.9c-12-19-25-32-31-29c-5,3,3,19,18,35
		C5699.2,6920.9,5701.2,6920.9,5676.2,6877.9z M5527.2,6880.9c0-6-6-5-15,2c-8,7-15,14-15,16s7,1,15-2
		C5520.2,6892.9,5527.2,6885.9,5527.2,6880.9z M4374.2,6835.9c-3-10-5-4-5,12c0,17,2,24,5,18
		C4376.2,6858.9,4376.2,6844.9,4374.2,6835.9z M5480.2,6856.9c-5-14-1-16,21-12c18,4,24,2,17-5c-5-5-22-7-36-3c-22,6-25,9-15,21
		C5483.2,6877.9,5488.2,6876.9,5480.2,6856.9z M4344.2,6848.9c-14-11-17-23-13-57l6-44l-11,44c-10,39-9,47,7,58
		C4357.2,6866.9,4367.2,6865.9,4344.2,6848.9z M3431.2,6836.9c9-3,16-16,15-28c0-21,0-21-9,2c-10,23-30,30-30,10c0-6-3-9-6-5
		c-3,3-3,10,1,16C3409.2,6844.9,3410.2,6844.9,3431.2,6836.9z M3677.2,6777.9c-11-13-10-18,8-31c20-14,42-69,42-106
		c0-24-50-48-100-48c-38,0-40,2-40,30c0,17-4,30-9,30c-6,0-3,16,5,35c18,43,18,49,0,42c-10-4-13-1-9,9c7,19-2,18-23-3
		c-17-17-18-17-11,0c4,10,2,17-6,18c-7,0-2,4,10,9s31,7,42,5c19-4,93,28,87,37c-2,3,2,2,7-3
		C3687.2,6796.9,3686.2,6787.9,3677.2,6777.9z M4376.2,6721.9c-8-5-21-8-29-8s-5,4,8,9c12,5,22,15,23,22c0,10,2,10,6-1
		C4387.2,6736.9,4383.2,6726.9,4376.2,6721.9z M3747.2,6690.9c0-23-16-16-23,11c-3,14-1,18,9,14
		C3741.2,6712.9,3747.2,6701.9,3747.2,6690.9z M3554.2,6616.9c-3-3-12-4-19-1c-8,3-5,6,6,6
		C3552.2,6622.9,3558.2,6619.9,3554.2,6616.9z M3742.2,6526.9c15-4,20-13,19-32c-1-26-4-27-55-30c-44-2-61,1-82,18
		c-46,36-36,50,36,50C3694.2,6532.9,3731.2,6529.9,3742.2,6526.9z M5440.2,6301.9c-6-6-9-19-6-28c4-14,3-14-6-1c-16,22-13,40,6,40
		C5447.2,6312.9,5448.2,6309.9,5440.2,6301.9z M5481.2,6113.9c3-4-5-18-19-31c-26-24-31-6-6,24
		C5471.2,6124.9,5474.2,6125.9,5481.2,6113.9z M5419.2,6065.9c-6-2-9-10-6-15c4-7,2-8-5-4c-13,9-5,26,12,25
		C5429.2,6071.9,5428.2,6069.9,5419.2,6065.9z M5317.2,5771.9c0-5-4-9-8-9c-5,0-9,7-9,15s4,12,9,9
		C5313.2,5783.9,5317.2,5777.9,5317.2,5771.9z M4817.2,5469.9c0-2-10-12-21-23c-22-19-22-19-10,4
		C4796.2,5468.9,4817.2,5481.9,4817.2,5469.9z M4439.2,5146.9c2-19,0-37-4-40s-8,13-8,35C4427.2,5192.9,4433.2,5194.9,4439.2,5146.9
		z"/>
	<linearGradient id="SVGID_2_" gradientUnits="userSpaceOnUse" x1="5447.2739" y1="6097.8403" x2="5450.2695" y2="6097.8403">
		<stop  offset="0" style="stop-color:#000000"/>
		<stop  offset="0" style="stop-color:#EBEBEB"/>
		<stop  offset="0" style="stop-color:#A85700"/>
		<stop  offset="0.9926" style="stop-color:#FF8400"/>
	</linearGradient>
	<path class="st1" d="M5456.2,6095.9c-13-16-12-17,4-4c9,7,17,15,17,17C5477.2,6116.9,5469.2,6111.9,5456.2,6095.9z"/>
	<linearGradient id="SVGID_3_" gradientUnits="userSpaceOnUse" x1="5297.23" y1="4123.3286" x2="5933.9365" y2="4123.3286">
		<stop  offset="0" style="stop-color:#000000"/>
		<stop  offset="0" style="stop-color:#EBEBEB"/>
		<stop  offset="0" style="stop-color:#A85700"/>
		<stop  offset="0.9926" style="stop-color:#FF8400"/>
	</linearGradient>
	<path class="st2" d="M7982.2,7117.9c11-9,18-17,15-18c-3-2,3-21,14-44c17-40,18-44,2-67c-9-14-16-27-16-30c0-5,52-20,63-18
		c4,1,7-2,7-7c0-4,12-20,27-35c21-22,32-26,56-20c17,3,27,2,24-3c-5-8,118-32,185-36c9-1,15-4,12-8c-2-4,3-10,12-13s14-12,11-20
		c-5-11,0-12,25-5c56,16,68,0,68-94c0-90-15-132-45-132c-11,0-22-3-25-6s-18-10-35-16c-20-6-31-17-33-32c-2-13-16-30-30-38
		c-15-9-39-35-54-59c-15-25-35-44-45-44c-13,0-6-11,25-39c40-36,42-38,24-54c-23-21-85-47-114-48c-13,0-17-3-10-6c21-8,13-22-20-31
		l-31-8l41-13c23-8,42-20,42-26c0-17-25-36-41-33c-9,2-13-5-12-19c2-18-2-23-21-23c-14,0-33-3-43-6c-15-5-15-4-3,5c13,9,13,11-2,11
		c-10,0-24,14-33,30c-9,17-18,30-21,30c-2,0,0-10,7-21c11-21,10-22-22-15c-19,3-51,18-72,32c-55,36-66,28-60-42c3-32-1-82-8-111
		c-11-50-11-55,9-76c12-13,22-35,22-50c0-18,5-27,15-27c19,0,67-49,60-60c-12-19-76-7-115,21c-25,18-48,28-59,24
		c-19-6-138,41-209,82c-91,54-100,140-29,288c44,90,106,172,120,158c4-3,10,3,13,13c4,10,18,33,31,51c21,30,17,53-7,38
		c-5-3-10,0-10,8s-7,18-15,21c-13,5-14,10-4,28c11,21,10,21-12-3c-13-14-41-46-62-71c-23-29-48-49-67-53c-17-4-30-10-30-15
		c0-4-10-6-22-4c-13,2-18,2-11-2c9-4,7-11-7-27c-11-11-20-32-21-46l-1-26l-7,25c-7,23-8,22-12-13c-4-30-2-36,9-32c12,4,11,0-2-19
		c-11-17-17-56-20-128c-4-98-8-126-21-168c-7-20-3-22,110-50c38-10,79-21,89-26c14-5,17-4,12,4c-10,17,60-28,102-65
		c31-27,35-34,22-43c-11-7-19-5-32,10c-16,20-17,20-20-2c-2-15-10-23-23-24c-11-1-41-5-67-9c-39-6-47-4-50,10c-2,13-14,9-61-24
		s-66-41-103-41c-25,0-53,4-62,9c-10,5-47,4-93-3c-81-13-133-6-196,27c-18,10-42,17-53,17c-26,0-132,47-142,63c-4,7-6,18-3,25
		c2,7-4,12-15,12c-10,0-22,5-25,10c-4,6-11,7-17,4c-7-4-8-2-4,4c13,21-3,32-29,20c-13-6-23-14-20-17c2-4-14-6-35-4c-24,1-43-4-50-13
		c-7-8-20-14-30-14s-23-7-30-15s-20-15-29-15c-18,0,14,21,63,41c27,11,28,13,10,20c-27,11-42,10-24-1c10-7,11-10,2-10
		c-7,0-15,7-19,16c-4,11-13,5-34-27c-29-45-98-105-137-120c-13-5-20-14-17-19c3-6-4-24-16-42c-13-17-18-28-12-25c19,12,26-12,12-46
		c-27-69-180-288-220-314c-33-22-39-31-39-62c0-20-9-51-20-69c-25-40-25-40,2-44c12-2,23-9,26-17s0-11-7-7c-6,4-11,2-11-3
		c0-6,6-11,13-11c8,0,19-11,25-24c13-29,61-41,78-18c6,9,23,17,36,19c21,3,27-2,30-22c3-13,1-22-3-19c-5,3-9,0-9-6c0-7-10-25-21-42
		c-21-29-23-45-16-133l2-30l-135,3c-126,2-136,4-153,25c-28,34-67,114-67,135c0,11-7,25-15,32s-15,21-15,31c0,23-13,24-35,3
		c-13-14-21-15-41-5c-15,7-23,7-19,1c3-5,2-10-4-10s-7-7-4-17c5-12,3-14-8-8c-12,8-12,6,0-8c15-19,26-23,15-5c-4,7-3,8,4,4
		c13-8,6-30-19-67c-10-14-15-30-11-34c4-5,2-5-5-1s-19-4-28-18c-14-21-26-26-72-28l-55-3l28-25c15-14,24-19,19-11c-5,9-4,12,3,7
		c6-3,14-1,18,5c5,9,0,10-14,7c-12-4-25-2-28,3c-3,6,10,9,30,7l36-2l-20-21c-11-12-21-33-22-47c-1-15-7-24-12-21c-5,4-7-1-3-10
		c3-9,1-19-5-23c-7-5-8-2-3,7c8,12,6,12-8,0c-27-22-21-24,46-17l62,6l69-70c47-48,66-74,62-85c-4-12,11-32,50-68c53-49,56-53,51-90
		c-9-66-22-72-147-69c-106,2-110,1-114-21c-9-42-12-207-4-207c4,0,8-13,8-30c0-28,3-30,35-30c21,0,35-5,35-12s3-24,5-38
		c5-22,4-22-4-5c-9,18-10,17-10-8c-2-53-26-94-65-107c-19-6-35-14-35-18c1-4,1-31,0-60c-1-47-5-57-38-92c-21-22-44-41-51-42
		c-8-2-44-31-80-66c-37-35-86-76-109-93c-24-16-43-33-43-37c1-11,39-78,40-69c0,5-4,16-9,26c-7,13-6,18,3,18s12-12,10-35
		c-1-19,3-44,11-56c7-12,15-30,16-41c5-35-12-119-28-137c-11-12-12-21-4-37c6-11,11-30,12-43c0-15,20-40,59-73c59-50,80-80,80-114
		c0-11,16-29,37-43c20-12,44-27,52-33c41-26,75-63,92-100c18-38,23-35,22,12c-1,7,3,10,8,8c4-3,11,1,16,8c9,16,66,37,98,37
		c13,0,28-6,34-14c14-17,41-12,101,19c25,13,61,26,80,30c49,9,112-15,128-49c12-24,17-26,68-24c49,2,58-1,75-22c10-14,19-34,19-46
		c0-29-19-84-41-115l-18-26l67-69c79-81,98-116,113-215c17-102,15-122-10-157c-11-17-21-37-21-45s-6-19-13-25c-25-21-11-115,31-204
		c35-72,66-174,60-196c-3-13,14-77,24-89c6-7,8-20,4-28c-3-10,1-15,13-15c38,0,81-196,50-227c-8-8-7-11,2-10c40,1,46-3,41-33
		c-9-64,5-67,61-13c53,52,107,73,133,52c8-7,23-4,45,10c18,11,53,23,77,27c37,5,46,12,62,43c10,21,26,43,34,50c9,8,16,19,16,25
		c0,7,14,25,31,42c17,16,42,54,56,84c13,30,41,73,61,95c52,57,65,81,52,105c-23,42-12,79,38,128c26,26,67,59,92,72
		c24,14,50,36,56,48c8,17,13,20,17,10c6-14,10,22,8,58c-1,11,7,28,19,39c21,19,28,41,8,29c-6-4-8-3-4,4c3,6-9,37-29,69
		c-19,32-36,74-39,93s-8,49-11,65c-5,25,0,39,31,80c74,98,157,186,215,226c54,38,78,68,151,185c27,42,58,123,58,150c0,8,7,29,16,47
		l17,32l-25-26c-27-29-73-47-133-51l-40-3v48v48l55,23c30,13,69,29,87,36c17,6,46,25,64,41c19,17,44,29,59,29c16,0,36,11,52,28
		c40,44,76,71,84,64c4-4,4,1,1,11c-9,24,23,69,68,97c38,24,38,40-1,40c-15,0-24,6-24,15c0,11-11,15-43,15c-47,0-77,21-77,55
		c0,17,7,17,92,11c50-3,133-6,185-6h94l50-51c28-28,48-57,45-65c-3-7,4-16,15-19c10-4,19-9,19-13c1-4,17-25,36-47c20-22,33-34,28-26
		c-4,9-3,12,4,7c6-4,9-12,7-19c-3-7,7-25,21-42c25-29,26-29,10-2c-9,15-12,27-7,27c6,0,6,12,1,31c-12,41-16,44-34,30
		c-10-8-16-9-21-1c-3,5-5,10-3,11c51,12,64,1,71-62c2-19,9-45,16-58c11-19,11-22-1-16c-7,4-7,1,2-7c15-12,60-108,75-156
		c3-12,17-33,30-46s29-43,35-66c9-35,42-86,44-71c2,11,55-15,85-43c19-17,31-25,27-19c-4,8-1,13,9,13c8,0,20-10,24-22l9-23l6,25
		c12,53,10,65-10,85c-23,23-41,89-51,188l-6,58l74,75c84,85,214,194,232,194c7,0,49-29,94-65s85-65,90-65c12,0,33-50,33-77
		c0-22,3-23,38-17c20,4,42,11,48,15c15,12,35-19,60-91c14-40,19-80,18-148c-1-51,3-88,7-81c12,20,30-35,35-105c3-32,7-63,10-67
		c3-5-1-9-9-9c-7,0-27,16-44,35c-19,21-41,35-55,35c-12,0-33,3-45,6l-23,6l26-46c14-25,28-46,30-46c3,0,2,5-2,12s6,2,24-10
		c40-29,95-99,87-112c-3-5-2-10,3-10s20-25,32-55s26-55,31-55s18-18,29-40c15-29,34-47,70-65c27-14,54-34,60-45s18-20,28-21
		c14,0,13-2-3-8c-15-6-4-10,40-15c33-3,92-14,130-23c39-9,82-16,97-15s30-3,34-9c4-8-1-9-17-5c-13,4,0-5,30-19c69-32,73-32,31,5
		l-35,31l44-7c55-8,321,5,321,16c0,5-85,10-189,12c-160,2-192,6-207,20c-11,9-30,21-44,26c-26,10-183,133-197,154
		c-12,19-69,48-78,40c-5-4-5-1-1,6c4,6,2,12-4,12c-7,0-10,6-7,14s-3,22-14,32c-23,21-25,44-4,44c13,0,14,4,3,23c-13,23-17,43-22,92
		c-4,35-26,85-37,85c-22,0-80,66-95,108c-10,26-22,53-27,59c-11,14-1,82,15,100c11,14,32,7,23-7c-3-4,12-21,33-36c20-16,63-52,94-81
		c32-29,62-53,66-53c5,0,13,14,18,31c6,22,21,38,50,53c40,20,64,53,64,86c0,9,5,21,12,28c8,8,8,15-2,27c-11,13-15,13-22,3s-8-10-7,2
		c1,8-5,30-13,49c-18,41-7,100,25,128c11,10,17,12,12,4c-5-9-4-12,2-8s14,19,18,34c3,15,20,42,36,61c16,18,26,39,23,45c-4,7-4,9,1,5
		c4-4,23,2,42,13c18,11,39,19,46,16c6-2,23,5,36,17c13,11,21,16,18,9c-5-8,11-12,53-15c48-2,60,0,60,12c1,8,7,1,14-16
		c22-50,34-49,40,1c3,25,9,66,12,92l6,46l-31-31c-22-21-29-36-24-49c3-10,3-15-2-11c-4,4-9,22-11,40c-3,26-1,30,7,18s9-10,4,10
		c-17,71-17,90,3,132c12,24,24,57,28,73c7,27,6,29-10,16c-21-18-23-15-27,39c-3,28-11,50-21,58c-10,7-26,33-37,57
		c-14,32-26,45-40,45c-16,0-21,6-21,29c0,21,10,38,38,62c20,18,43,41,51,51c12,18,11,19-23,13c-20-4-36-4-36-1c0,16,40,83,59,100
		c21,19,21,19,42,0c12-10,28-32,36-47c8-16,17-26,20-23c10,9,43-25,43-43c-1-10-7-5-16,12c-9,16-18,27-21,24c-7-8,27-57,40-57
		c6,0,8-3,5-6c-4-3,0-20,7-37c7-18,16-59,20-92c7-54,9-57,17-33c11,32,40,33,62,2c13-17,15-17,21-2c4,9-1,31-10,48c-9,18-12,30-7,26
		c5-3,15-19,22-36c10-24,10-33-1-46c-12-15-15-14-33,7c-10,13-17,20-15,14c16-36,36-72,46-83c7-7,17-21,22-30c8-14,12-15,23-3
		c7,8,8,11,2,8c-15-8-38,18-29,33c3,5,12,10,18,10c7,0,6-4-3-10c-8-5-11-13-6-17c10-10,76-12,70-2c-2,4,0,10,6,14c5,3,10,14,10,24
		c0,24,60,69,102,78c17,3,47,17,66,30c19,12,59,30,89,40c35,11,52,21,49,30c-3,7,5,20,17,28c22,16,22,16-7,13c-27-3-31,1-37,32
		c-8,36,5,265,17,310c4,14,18,38,33,54c14,16,20,26,14,22c-7-4-13-3-13,3c0,11,39,60,109,135c25,27,39,45,31,40
		c-29-16-95-70-132-107c-31-32-40-36-61-28c-14,5-28,7-32,3c-3-3-3,1,1,11c3,10,1,17-6,17c-6,0-9,4-6,9s-6,40-20,77
		c-26,69-43,102-29,54c15-49,15-55,0-25c-8,17-12,41-9,53c3,15,1,21-5,17c-7-3-8,0-5,9s1,16-6,16c-6,0-8,5-4,11c3,6,0,15-7,20
		c-11,6-10,9,4,15c9,3,24,1,32-6c29-24,16,10-19,51c-45,53-99,156-92,175c4,10-1,18-14,21c-11,3-20,11-20,19c0,7-6,17-12,21
		c-7,4-13,15-13,23s-9,16-20,17c-11,2-14,0-8-3c23-10-5-47-30-41c-43,10-126,45-155,66c-16,11-33,17-37,13c-11-10,3,60,27,138
		c11,36,24,83,31,105c20,72,48,91,172,112c17,3,35,10,40,17c16,18,95,20,95,2c0-12,7-13,37-4c40,11,86,38,66,38s-34,38-28,74
		c6,28,16,39,57,61c34,19,48,32,44,42c-3,8-6,16-6,19c0,2-16-4-36-13c-25-13-34-22-31-35c3-10,1-21-4-24s-9,8-9,23c0,24,6,31,38,43
		c20,8,40,16,45,18c4,2,7-2,7-8c0-7,9-23,20-37l19-25l7,26c3,14,10,26,15,26s9,9,9,21c0,14,5,19,18,17c14-3,17-14,17-68
		c-1-109-21-256-36-266c-5-3-9-14-9-24s-5-20-11-22c-14-5,20-110,56-178c101-187,119-233,119-303l1-69l12,44c7,23,17,51,24,62
		c6,10,13,53,16,95s10,78,14,81s9,27,11,53s9,49,16,52c17,6,15,30-4,46c-12,10-14,22-9,49c3,19,9,60,14,91c7,54,6,55-16,51
		c-13-2-23-8-23-13s7-6,15-3c11,5,15,0,14-17c0-23-1-23-9-4c-6,13-9,15-9,5c-2-25-21,10-21,38c0,17-6,22-25,22c-29,0-40,19-49,83
		c-6,39-3,54,14,82c12,19,32,38,45,41c12,3,27,16,34,30c13,29,21,30,70,5l38-20l7,76c4,55,13,88,31,119c29,50,76,87,99,78
		c11-4,15-2,11,8c-4,9,6,20,27,29l33,16l-37,7c-40,7-142,92-153,125c-3,10-1,38,5,62s11,61,10,82c-1,36,12,49,26,25c5-8,10-7,18,4
		c11,14,99,21,90,7c-2-4,2-9,10-12c10-4,12,0,9,14c-6,22,0,23,28,8c19-10,20-9,9,11c-6,11-22,37-36,58c-15,22-24,46-21,60
		c2,12,1,25-3,27c-5,3-11,23-15,45c-6,37-9,39-32,33c-19-4-30-1-40,13c-10,13-16,15-21,7c-9-14-88-19-172-9c-36,4-85,9-110,10
		c-25,2-67,9-94,16c-39,11-66,11-145,0c-54-7-113-11-131-8c-33,5-33,5-12-12c12-10,18-20,15-24c-4-3,1-6,11-6c9,0,15-4,12-9
		s1-14,9-21c23-19,18-35-11-38c-18-1-33,7-51,29l-26,31l-11-33c-10-30-17-34-81-51c-118-31-153-34-162-12c-4,11-13,25-20,32
		s-13,27-13,44c0,25-3,29-17,23c-10-4-39-16-65-26c-25-10-61-27-80-39c-18-11-42-20-54-20c-22,0-63,33-81,65c-10,16-14,17-35,7
		c-23-12-23-12,0-8c14,3,20,0,15-6c-3-6-1-8,5-4c6,3,14,1,18-5c10-18-48-2-62,17c-6,7-15,14-19,14c-5,0-17,7-27,17
		c-17,15-19,15-36-1c-12-10-31-15-53-12c-19,2-42,0-51-5c-11-6-34-5-60,2c-92,23-88,23-88,1c0-12-7-47-15-79c-16-61-20-101-7-73
		c4,8,14,16,22,18c9,1,4-7-11-21c-14-12-28-31-32-41c-6-16-14-18-53-12l-46,6l7-40c6-38,6-40-19-40c-30,0-94,61-132,126
		c-30,52-60,64-144,61l-65-2l2-35c2-23-1-30-6-21c-7,11-17,11-62,1c-30-7-48-15-41-18c7-2,27,1,44,7c44,16,60,12,18-4
		c-47-18-71-18-84,1c-10,13-18,14-61,3c-28-6-63-18-78-26c-33-17-56-11-97,24c-35,29-38,43-10,43c14,0,18,5,13,16c-4,12-8,13-13,3
		c-5-7-7,11-6,40s-1,54-6,57s-17,23-29,45c-15,30-24,39-38,34c-10-3-29,4-45,16l-28,22l-40-23c-39-22-40-22-81-4c-23,10-52,27-64,37
		c-13,11-40,21-60,23c-21,1-40,3-43,4s-8,2-12,1c-5,0-8,4-8,10c0,5-5,7-11,3c-7-4-7,1,1,16c11,21,17,22,78,17c58-6,63-5,46,8
		c-10,8-23,15-28,15c-13,0-259,111-275,123c-13,11-33,18-63,20c-9,1-15,4-12,8c2,4-7,10-21,13c-14,4-33,14-43,24c-31,31-73,54-88,48
		c-9-3-34,3-57,15C7977.2,7126.9,7969.2,7127.9,7982.2,7117.9z M8017.2,7087.9c0-8-2-15-4-15s-6,7-10,15c-3,8-1,15,4,15
		C8013.2,7102.9,8017.2,7095.9,8017.2,7087.9z M8041.2,7083.9c3-5-2-15-12-22c-15-12-16-12-5,2c7,9,10,19,6,22c-3,4-4,7,0,7
		C8033.2,7092.9,8038.2,7088.9,8041.2,7083.9z M8051.2,6960.9c14-10-5-11-28-2c-13,5-14,9-4,21s13,13,17,2
		C8038.2,6973.9,8045.2,6964.9,8051.2,6960.9z M8307.2,6956.9c0,5,7,3,15-4s15-18,15-24s-6-4-13,5s-16,16-22,17c-5,0-11,6-13,14
		c-2,9,0,8,7-2C8302.2,6954.9,8307.2,6951.9,8307.2,6956.9z M8504.2,6750.9c-3-8-6-5-6,6c-1,11,2,17,5,13
		C8506.2,6766.9,8507.2,6757.9,8504.2,6750.9z M9844.2,6646.9c-3-3-12-4-19-1c-8,3-5,6,6,6
		C9842.2,6652.9,9848.2,6649.9,9844.2,6646.9z M9817.2,6539.9c0-18-2-19-10-7c-13,20-13,43,0,35
		C9813.2,6564.9,9817.2,6551.9,9817.2,6539.9z M8937.2,6476.9c0-2-7-4-15-4s-15,4-15,10c0,5,7,7,15,4
		C8930.2,6482.9,8937.2,6478.9,8937.2,6476.9z M9280.2,6455.9c-7-2-19-2-25,0c-7,3-2,5,12,5S9286.2,6458.9,9280.2,6455.9z
		 M8911.2,6427.9c-4-8-8-15-10-15s-4,7-4,15s4,15,10,15C8912.2,6442.9,8914.2,6435.9,8911.2,6427.9z M7985.2,6056.9c-3-27-4-26-9,8
		c-3,22-1,34,4,29S7987.2,6072.9,7985.2,6056.9z M8027.2,6045.9c0-7-5-13-11-13c-5,0-7,4-4,10c3,5,1,20-5,32c-11,22-10,22,4,4
		C8020.2,6067.9,8027.2,6052.9,8027.2,6045.9z M8002.2,6013.9c3-5,2-12-3-15s-9,1-9,9C7990.2,6024.9,7993.2,6026.9,8002.2,6013.9z
		 M8033.2,5968.9c3-8,1-22-4-31c-8-16-9-16-15-1c-4,10-3,15,3,11c6-3,10,1,10,10s-4,13-10,10c-5-3-10-1-10,4
		C8007.2,5987.9,8027.2,5984.9,8033.2,5968.9z M8086.2,5845.9c-3-20,2-34,10-28c5,3,13,0,17-6c4-8,3-9-4-5s-12,1-12-6
		c-1-7-7-2-14,12c-8,14-12,28-10,32C8080.2,5854.9,8087.2,5854.9,8086.2,5845.9z M6547.2,5812.9c-6-11-13-20-16-20c-2,0,0,9,6,20
		s13,20,16,20C6555.2,5832.9,6553.2,5823.9,6547.2,5812.9z M11026.2,5778.9c-2-2-15-9-29-15c-24-11-24-11-6,3
		C11007.2,5779.9,11040.2,5790.9,11026.2,5778.9z M8133.2,5752.9c5,0,10-10,11-22l2-23l-7,23c-4,13-11,23-17,22c-5-1-11,4-13,12
		c-3,11-2,11,6,0C8120.2,5756.9,8128.2,5751.9,8133.2,5752.9z M8136.2,5682.9c0-9-4-8-9,5c-5,11-9,27-9,35c0,9,4,8,9-5
		C8132.2,5706.9,8136.2,5690.9,8136.2,5682.9z M7227.2,5647.9c7-8,9-15,4-15s-2-5,6-11c20-14-21-2-64,18c-29,13-25,13,37-3
		c21-5,21-5,3,10c-11,9-15,16-9,16S7220.2,5655.9,7227.2,5647.9z M7377.2,5642.9c0-12-8-12-35,0c-18,8-17,9,8,9
		C7365.2,5652.9,7377.2,5648.9,7377.2,5642.9z M7347.2,5610.9c0-6-6-5-15,2c-8,7-15,14-15,16s7,1,15-2
		C7340.2,5622.9,7347.2,5615.9,7347.2,5610.9z M6307.2,5411.9c0-5-7-9-15-9s-17-11-21-25c-3-14-15-30-26-36c-16-9-15-4,8,30
		c15,23,31,41,36,41s6,5,2,12s-3,8,4,4S6307.2,5417.9,6307.2,5411.9z M11337.2,5416.9c0-8-4-12-10-9c-5,3-10,10-10,16c0,5,5,9,10,9
		C11333.2,5432.9,11337.2,5425.9,11337.2,5416.9z M6622.2,5333.9c3-5,0-13-6-17c-8-5-9-3-4,6c6,10,4,12-9,7c-10-4-15-3-11,3
		C6600.2,5345.9,6614.2,5345.9,6622.2,5333.9z M6577.2,5292.9c0-11-2-20-4-20s-6,9-9,20s-1,20,4,20S6577.2,5303.9,6577.2,5292.9z
		 M6524.2,5265.9c-11-3-16-11-13-21c13-45,14-72,1-33c-16,48-13,62,13,60C6540.2,5270.9,6540.2,5269.9,6524.2,5265.9z
		 M6581.2,5251.9c-3-6-2-14,5-18c6-4,12-29,13-57l3-49l-35-1l-35-2l34,5c33,4,33,5,27,46c-4,22-12,47-17,54c-10,11-5,33,7,33
		C6586.2,5262.9,6585.2,5257.9,6581.2,5251.9z M6093.2,5103.9c-4-5,0-11,6-14c7-3,3-4-9-4c-17,1-19,4-11,14
		C6091.2,5114.9,6101.2,5117.9,6093.2,5103.9z M6782.2,5102.9c7-11-34-23-66-18c-16,2-23-2-21-10c1-8-11-19-28-25c-16-6-30-15-30-19
		s-5-8-11-8c-20,0,10,28,38,35c14,3,23,9,19,12c-15,15,18,33,53,28c27-4,31-3,16,4c-19,9-19,10,2,10
		C6766.2,5112.9,6779.2,5108.9,6782.2,5102.9z M6586.2,5087.9c-33-18-44-42-21-48c10-3,5-5-11-6c-27-1-27-1-11,24c17,26,41,44,59,44
		C6608.2,5101.9,6600.2,5095.9,6586.2,5087.9z M6617.2,5016.9c31-7,32-7,26-53c-4-25-7-59-9-74c-3-38-51-77-95-77c-18,0-40-4-50-9
		c-9-4-33-16-52-26s-32-15-28-10c4,4,1,17-7,27c-16,24-9,49,11,41c8-3,14,1,14,10c0,8,14,27,30,40c21,18,30,35,30,56
		c0,16,4,41,10,55c8,22,16,26,49,26C6567.2,5022.9,6599.2,5019.9,6617.2,5016.9z M6305.2,4979.9c2-9-2-17-8-17s-8,5-4,11
		c3,6,0,16-7,21c-12,8-11,9,1,5C6295.2,4997.9,6303.2,4988.9,6305.2,4979.9z M6717.2,4973.9c0-11-4-22-9-25c-5-4-7,3-4,13
		c3,13-1,21-14,24c-15,4-14,5,5,6C6711.2,4992.9,6717.2,4986.9,6717.2,4973.9z M5772.2,4962.9c3-5,1-10-4-10c-6,0-11,5-11,10
		c0,6,2,10,4,10C5764.2,4972.9,5769.2,4968.9,5772.2,4962.9z M10804.2,4914.9c-3-12-5-11-6,6c-1,23-15,30-26,12c-3-5,0-10,7-10
		c10,0,10-2,0-9c-10-6-7-10,12-15c28-7,32-17,63-171c10-49,20-91,24-93c3-1,4-17,2-35c-3-27-2-29,7-12c7,15,9,9,4-25
		c-4-33-2-41,5-30c9,12,11,11,11-7c0-13-9-32-20-43s-16-20-10-20c5,0,7-7,4-15c-4-8-2-15,4-15c13,0,29-50,37-115c4-27,8-62,11-76
		c6-32-37-89-67-89c-11,0-18-4-15-9c8-13-75-91-96-91c-9,0-23-6-31-14c-21-21-63,8-130,89c-61,73-86,139-68,173c6,11,11,35,11,53
		s10,48,23,66c21,31,25,33,65,27c52-8,68,4,77,57c4,21,11,39,16,39s9,10,9,22s9,47,19,77c27,80,32,150,15,201c-8,24-13,48-11,54
		c3,6,4,14,3,17c0,4,8,17,18,28c17,19,21,20,29,6C10804.2,4938.9,10806.2,4924.9,10804.2,4914.9z M6341.2,4920.9c-3-5-11-5-18,1
		c-16,13-26,4-26-22c0-17,2-18,18-6c15,13,16,12,3-3c-7-10-17-15-22-12c-14,8-11,52,4,57C6318.2,4941.9,6348.2,4931.9,6341.2,4920.9
		z M5795.2,4797.9c-3-3-9,2-12,12c-6,14-5,15,5,6C5795.2,4808.9,5798.2,4800.9,5795.2,4797.9z M6017.2,4745.9c-30-5-32-7-15-13
		c15-7,16-9,4-9c-9-1-21,5-27,12c-9,10-3,13,31,14C6049.2,4749.9,6049.2,4749.9,6017.2,4745.9z M6154.2,4735.9c-20-2-52-2-70,0
		c-17,2,0,4,38,4C6161.2,4739.9,6175.2,4737.9,6154.2,4735.9z M6070.2,4668.9c-30-50-43-55-64-29c-13,15-11,16,14,11
		c24-5,30,0,49,33c12,21,23,37,25,35S6085.2,4694.9,6070.2,4668.9z M6041.2,4672.9c10-13,9-13-6-1c-10,7-18,21-17,30c0,13,1,14,6,1
		C6027.2,4694.9,6035.2,4680.9,6041.2,4672.9z M8683.2,4660.9c4-7,3-8-4-4s-12,2-12-3c0-6-4-11-10-11c-5,0-7,7-4,15
		C8660.2,4675.9,8673.2,4676.9,8683.2,4660.9z M5760.2,4645.9c-7-2-19-2-25,0c-7,3-2,5,12,5S5766.2,4648.9,5760.2,4645.9z
		 M5778.2,4603.9c1,18,2,20,6,5c10-36-13-36-48,1l-34,38l38-34C5777.2,4578.9,5777.2,4578.9,5778.2,4603.9z M5947.2,4592.9
		c-25-4-58-12-73-18c-45-19-46-12-2,8c22,10,58,18,80,18l40-1L5947.2,4592.9z M5973.2,4567.9c-11-8-27-15-35-15c-9,1-2,7,14,15
		C5991.2,4585.9,5996.2,4585.9,5973.2,4567.9z M5819.2,4555.9c-6-2-9-10-6-15c4-7,2-8-5-4c-13,9-5,26,12,25
		C5829.2,4561.9,5828.2,4559.9,5819.2,4555.9z M5883.2,4530.9c-9-5-22-7-29-4c-7,2-4,5,6,5c9,1,17,6,17,12c0,5,5,7,11,3
		C5896.2,4541.9,5894.2,4536.9,5883.2,4530.9z M7775.2,4421.9c3-22-2-29-27-37c-16-6-32-8-35-6s-4,1-1-3c3-3,0-12-6-20
		c-9-10-5-21,17-49c58-71,74-97,80-133c4-20,16-52,28-71c11-19,19-41,18-49c-2-7,0-11,5-8c4,3,9-10,10-29c2-34,1-34-43-34
		c-59,0-106,21-124,54c-13,24-12,33,1,71l16,44l-38,37c-36,35-39,42-39,94c0,63-8,100-21,100c-6,0-12-7-15-15c-8-19,4-67,15-61
		c4,3,8-9,8-27v-32l-18,40c-24,55-24,92,1,100c11,3,25,15,31,26c14,27,45,39,94,36C7767.2,4447.9,7772.2,4444.9,7775.2,4421.9z
		 M10969.2,4403.9c2-17,1-28-4-25c-8,5-12,54-4,54C10963.2,4432.9,10967.2,4419.9,10969.2,4403.9z M7067.2,4397.9c23-12,30-22,30-46
		c0-26,3-30,18-24c9,4,42,9,72,11c47,4,62,0,105-24c53-30,61-52,41-109c-6-20-4-23,18-23c26,0,36,23,16,35c-5,3-10,1-10-6s-2-10-5-7
		s-3,13,1,22c6,15,7,15,20-1c44-58-29-74-159-37c-46,14-83,20-85,15c-2-6-10-7-18-4s-26-5-39-17c-21-20-31-22-71-16
		c-26,3-53,11-60,17c-21,18-26,63-9,95c8,16,15,34,15,40c0,14,69,94,81,94C7034.2,4412.9,7051.2,4405.9,7067.2,4397.9z
		 M6464.2,4297.9c21-13,45-31,54-40c9-8,22-15,29-15c20,0,70-51,70-71c0-9-7-22-15-29c-12-10-28-4-87,33c-70,44-154,128-141,141
		C6388.2,4329.9,6428.2,4321.9,6464.2,4297.9z M10277.2,4271.9c0-11-4-18-9-14c-6,3-9,14-8,25
		C10262.2,4306.9,10277.2,4297.9,10277.2,4271.9z M6378.2,4195.9c61-54,115-99,119-101c5-2,17,7,28,18c16,17,24,20,39,12
		c17-10,17-11-4-19c-12-4-23-12-25-18c-2-5-10-10-18-10c-8-1-33-12-55-24s-31-19-20-15s29,6,40,6c10-1,26,4,35,10c13,11,13,10,0-5
		c-9-9-36-18-65-20c-27-3-70-14-95-26c-71-33-80-29-80,28c0,27,4,61,10,76c5,14,6,24,1,21s-13,26-18,64c-7,64-9,69-21,49
		c-8-11-10-19-5-16c4,3,9-21,11-53c2-58,1-60-39-92c-36-29-40-36-34-65c3-18,2-33-3-33c-6,0-10,6-9,13c1,31-4,50-10,43
		c-5-4-8-11-8-14c0-14-16-32-28-32c-6,0-2,7,9,15c37,28,3,15-38-15c-55-40-81-39-108,5c-24,39-37,47-20,13c11-22,10-22-4-4
		c-11,13-16,15-16,6c0-7-3-10-6-7c-4,4-1,13,6,21c6,9,10,21,7,28c-7,20,12,48,39,58c13,5,24,14,24,20s-6,8-12,4c-7-4-10-4-6,0
		c3,4,9,7,13,6c3,0,19,16,34,37c32,45,71,73,101,73c11,0,37,9,57,20c21,11,43,20,50,20C6262.2,4292.9,6317.2,4248.9,6378.2,4195.9z
		 M10262.2,4202.9c-7-22,5-26,23-8c9,9,12,9,12,1c0-7-5-15-10-18c-16-10-50,5-50,21c0,8,5,12,10,9c7-4,9,3,5,22c-5,23-4,25,5,10
		C10263.2,4230.9,10265.2,4213.9,10262.2,4202.9z M10234.2,4150.9c-3-8-6-5-6,6c-1,11,2,17,5,13
		C10236.2,4166.9,10237.2,4157.9,10234.2,4150.9z M10265.2,4142.9c-7-10-14-17-17-15c-4,4,18,35,25,35
		C10275.2,4162.9,10272.2,4153.9,10265.2,4142.9z M6848.2,4122.9c11-6,19-21,19-36c0-14,4-23,9-19c17,10,24-18,8-30
		c-14-10-12-14,14-29c36-21,37-43,4-78c-20-22-30-26-48-19c-25,9-50,4-41-10c7-12,94-12,94,1c0,12,75,51,84,43c3-3,11-1,18,5
		c20,16,60,18,96,3c26-11,38-11,62-1c59,25,82-28,49-116c-31-82-50-98-110-91c-26,3-61,2-77-3c-44-12-174,14-242,48
		c-49,24-60,27-75,16c-10-8-21-11-25-9c-4,3-11-11-14-30c-4-19-11-35-17-35s-7-6-3-12c4-7,4-10-1-6c-4,4-14,3-20-2
		c-14-12-104,29-135,60c-10,10-37,21-61,24c-54,9-119,37-119,53c0,6,26,35,58,63c31,29,52,49,46,46c-7-3-14,0-17,8c-4,11,1,11,26,2
		c18-6,38-15,45-20c12-7,12-4,2,14c-6,12-10,23-8,25c2,1,19,12,38,24c19,11,31,21,25,21c-5,0,11,20,35,45c44,45,70,57,70,32
		c0-8,8-21,19-31c10-9,26-34,36-56s26-42,36-45c11-4,19-11,19-16s5-9,10-9c6,0,10,10,10,23c0,12,12,33,26,46c25,25,26,25,5,33
		c-12,4-21,14-21,22s-3,16-7,19c-5,2-2,2,4,1c7-2,17,6,23,16C6809.2,4135.9,6820.2,4137.9,6848.2,4122.9z M10232.2,4122.9
		c3-5,1-10-4-10c-6,0-11,5-11,10c0,6,2,10,4,10C10224.2,4132.9,10229.2,4128.9,10232.2,4122.9z M10633.2,4070.9c26-29,26-30,2-10
		c-24,22-27,22-31,5c-3-12-5-9-6,10c0,15,0,27,2,27S10616.2,4087.9,10633.2,4070.9z M6229.2,4043.9c-7-30-9-32-21-17
		c-12,14-11,19,4,36C6235.2,4087.9,6237.2,4085.9,6229.2,4043.9z M10632.2,4042.9c3-5,1-10-4-10c-6,0-11,5-11,10c0,6,2,10,4,10
		C10624.2,4052.9,10629.2,4048.9,10632.2,4042.9z M6267.2,4002.9c0-11-4-20-9-20s-7,9-4,20s7,20,9,20S6267.2,4013.9,6267.2,4002.9z
		 M6367.2,3970.9c-30-49-26-67,8-37c25,22,25,21-3-9c-24-27-31-30-33-17c-4,20,27,95,39,95
		C6383.2,4002.9,6378.2,3987.9,6367.2,3970.9z M10568.2,3975.9c-12-20-14-14-5,12c4,9,9,14,11,11
		C10577.2,3996.9,10574.2,3985.9,10568.2,3975.9z M10673.2,3983.9c-3-5-15-7-26-4c-28,7-25,13,6,13
		C10667.2,3992.9,10676.2,3988.9,10673.2,3983.9z M5979.2,3960.9c-6-7-25-21-44-31c-32-17-32-17-8,0c13,10,31,25,40,34
		C5984.2,3981.9,5995.2,3979.9,5979.2,3960.9z M6145.2,3975.9c-10-2-28-2-40,0c-13,2-5,4,17,4
		C6144.2,3980.9,6154.2,3978.9,6145.2,3975.9z M10532.2,3972.9c3-5,1-10-4-10c-6,0-11,5-11,10c0,6,2,10,4,10
		C10524.2,3982.9,10529.2,3978.9,10532.2,3972.9z M5897.2,3962.9c-8-5-27-10-42-10c-21,0-28-5-28-19c0-17,5-19,38-14
		c48,7,39-2-10-11c-37-7-38-6-38,23c0,27,3,30,38,34c20,2,42,4,47,5C5908.2,3971.9,5905.2,3967.9,5897.2,3962.9z M7778.2,3670.9
		c16-18,29-36,29-41c0-4,14-13,30-18c17-6,30-16,30-22c0-7,16-22,35-34c21-14,32-28,29-37c-3-8,0-17,6-21c16-10-8-35-34-35
		c-34,0-71,24-71,45c0,11-7,21-15,21c-8,1-20,2-27,3c-6,0-15,11-19,23c-3,12-19,32-34,44c-26,23-46,76-34,95
		C7714.2,3712.9,7749.2,3701.9,7778.2,3670.9z M7226.2,3515.9c6-13,9-23,7-23c-11,0-36,60-35,82c1,19,2,18,8-7
		C7210.2,3551.9,7219.2,3527.9,7226.2,3515.9z M7242.2,3582.9c3-6-1-7-9-4c-18,7-21,14-7,14
		C7232.2,3592.9,7239.2,3588.9,7242.2,3582.9z M10348.2,3565.9c-8-15-10-15-11-2c0,17,10,32,18,25
		C10357.2,3585.9,10354.2,3575.9,10348.2,3565.9z M7999.2,3558.9c11-16-4-37-22-31c-12,4-20,0-23-12c-3-10-5-2-6,18
		c-1,31,2,35,22,35C7982.2,3567.9,7995.2,3563.9,7999.2,3558.9z M10325.2,3517.9c-6-14-13-23-15-21c-5,5,15,46,22,46
		C10335.2,3542.9,10331.2,3531.9,10325.2,3517.9z M7294.2,3475.9c-3-10-5-4-5,12c0,17,2,24,5,18
		C7296.2,3498.9,7296.2,3484.9,7294.2,3475.9z M10292.2,3472.9c-3-5-12-10-18-10c-7,0-6,4,3,10
		C10296.2,3484.9,10300.2,3484.9,10292.2,3472.9z M5385.2,3455.9c-9-10-14-23-11-29c2-6-4-17-14-25c-16-13-17-12-4,4
		c16,20,8,34-12,21c-7-5,1,3,18,18C5396.2,3475.9,5407.2,3480.9,5385.2,3455.9z M7299.2,3403.9c15-14,30-39,33-56c4-16,9-39,11-50
		c4-16,3-17-4-5c-5,8-12,32-16,52c-4,22-15,42-26,48s-27,25-35,43s-10,23-3,13C7266.2,3437.9,7284.2,3417.9,7299.2,3403.9z
		 M7355.2,3420.9c11-18,23-51,26-73l6-40l-14,45c-7,26-21,58-31,73c-9,15-15,27-12,27S7344.2,3437.9,7355.2,3420.9z M8186.2,3399.9
		c-2-1-12-9-22-16c-15-12-17-12-11,3c3,9,13,16,22,16C8183.2,3402.9,8188.2,3401.9,8186.2,3399.9z M9294.2,3373.9c-17-6-17-8-3-20
		c8-7,20-10,26-6s9,1,8-7c-2-7,4-12,12-10s12,0,8-4s-2-14,5-22c6-9-11,2-39,24c-48,37-53,55-14,53
		C9308.2,3381.9,9306.2,3378.9,9294.2,3373.9z M9932.2,3354.9c-44-27-58-48-53-81c2-17,1-28-4-25c-14,9-8,58,10,80s50,43,67,44
		C9958.2,3372.9,9949.2,3364.9,9932.2,3354.9z M10060.2,3357.9c4-8,2-17-3-20c-6-4-10,3-10,14
		C10047.2,3376.9,10053.2,3378.9,10060.2,3357.9z M9979.2,3326.9c-9-16-10-14-9,8c1,15,6,23,11,18
		C9985.2,3348.9,9985.2,3336.9,9979.2,3326.9z M9393.2,3282.9c0-13-4-16-10-10c-14,14-16,39-2,34
		C9387.2,3304.9,9393.2,3293.9,9393.2,3282.9z M7457.2,3253.9c0-8-1-12-3-10c-1,2-11,15-22,28l-20,24l23-14
		C7447.2,3273.9,7457.2,3261.9,7457.2,3253.9z M7377.2,3240.9c15-21,17-28,6-19c-16,13-41,51-33,51
		C7352.2,3272.9,7364.2,3257.9,7377.2,3240.9z M9948.2,3192.9c5,0,11,11,15,25s8,24,11,22c8-8-9-57-20-57c-14,0-57,40-57,53
		c0,5,9-2,21-17C9929.2,3204.9,9943.2,3192.9,9948.2,3192.9z M7516.2,3144.9c0-12-3-9-10,8c-6,14-18,34-27,45c-9,12-5,8,11-7
		C7505.2,3174.9,7517.2,3154.9,7516.2,3144.9z M7422.2,3172.9c3-5,1-10-4-10c-6,0-11,5-11,10c0,6,2,10,4,10
		C7414.2,3182.9,7419.2,3178.9,7422.2,3172.9z M7528.2,3079.9c6,14,8,15,8,2c2-32-14-28-56,13c-24,23-43,46-43,50s19-13,42-38
		C7516.2,3066.9,7522.2,3063.9,7528.2,3079.9z M7673.2,2996.9c1-29,1-29-3-1c-5,30-12,33-33,15c-12-11-12-10-1,5
		C7655.2,3040.9,7672.2,3031.9,7673.2,2996.9z M7614.2,2995.9c-4-3-1-13,5-22c8-10,3-8-12,4c-14,11-27,21-29,22c-2,2,6,3,19,3
		S7617.2,2999.9,7614.2,2995.9z M7662.2,2944.9c-3-3-11,0-18,7c-9,10-8,11,6,5C7660.2,2953.9,7665.2,2947.9,7662.2,2944.9z
		 M9692.2,2694.9c-3-3-5,1-6,9c0,9-4,6-10-6c-8-17-9-16-5,8c2,15-1,30-5,33c-5,3-9,15-9,27c0,15,6,9,20-22
		C9688.2,2719.9,9695.2,2697.9,9692.2,2694.9z M9722.2,2639.9c8-20,13-37,10-37c-5,0-35,67-35,78S9707.2,2675.9,9722.2,2639.9z
		 M6287.2,2482.9c0-5-2-10-4-10c-3,0-8,5-11,10c-3,6-1,10,4,10C6282.2,2492.9,6287.2,2488.9,6287.2,2482.9z M9944.2,2386.9
		c-3-3-12-4-19-1c-8,3-5,6,6,6C9942.2,2392.9,9948.2,2389.9,9944.2,2386.9z M10044.2,2309.9c4-6-14,6-40,27s-47,40-47,43
		C9957.2,2386.9,10035.2,2323.9,10044.2,2309.9z M9793.2,2345.9c-7-7-26,7-26,19c0,6,6,6,15-2
		C9791.2,2355.9,9795.2,2347.9,9793.2,2345.9z M9913.2,2363.9c-11-17,5-39,35-51c16-7,28-15,25-17c-8-8-63,26-70,42c-9,24-7,35,5,35
		C9913.2,2372.9,9916.2,2368.9,9913.2,2363.9z M10072.2,2281.9c-4-5-12-9-18-8c-9,0-8,2,1,6c6,2,9,10,6,15c-4,7-2,8,5,4
		C10072.2,2294.9,10075.2,2286.9,10072.2,2281.9z M10012.2,2282.9c3-6-1-7-9-4c-18,7-21,14-7,14
		C10002.2,2292.9,10009.2,2288.9,10012.2,2282.9z M7470.2,2067.9c4-8,2-17-3-20c-6-4-10,3-10,14
		C7457.2,2086.9,7463.2,2088.9,7470.2,2067.9z M6687.2,1182.9c0-5-6-9-12-7c-7,1-12-3-11-9c1-7-6-19-15-27c-16-15-18-15-19,6
		c-2,17,0,19,7,7c5-8,10-12,11-7c1,4,2,10,3,15C6656.2,1185.9,6687.2,1205.9,6687.2,1182.9z"/>
	<linearGradient id="SVGID_4_" gradientUnits="userSpaceOnUse" x1="217.77" y1="3523.4541" x2="673.1152" y2="3523.4541">
		<stop  offset="0" style="stop-color:#000000"/>
		<stop  offset="0" style="stop-color:#EBEBEB"/>
		<stop  offset="0" style="stop-color:#A85700"/>
		<stop  offset="0.9926" style="stop-color:#FF8400"/>
	</linearGradient>
	<path class="st3" d="M3014.2,6961.9c-27-51-33-69-23-69s13,6,9,17c-6,15-5,16,9,3s14-16,1-24c-9-5-35-9-58-10c-25,0-51-8-62-18
		c-10-10-41-27-68-39c-81-36-82-40-23-98l53-50l-23-46c-12-26-19-51-16-57c5-7,2-8-6-3c-22,14-1-56,35-115c39-65,61-82,75-60
		c8,13,10,12,10-2c0-12-8-18-23-18c-16,0-33,17-65,67c-23,37-42,75-42,84c0,18-15,32-38,35c-8,2-15,4-16,6s-12,17-25,35l-22,32
		l-30-18c-17-10-39-17-49-14c-12,3-22-3-31-19c-6-12-39-54-72-93c-97-112-91-103-77-120c11-13,10-15-6-9c-18,5-18,5-1-6
		c9-6,17-16,17-23c0-15,82-18,92-3c4,6,6,1,5-11c-1-17-5-20-19-12c-10,5-18,7-18,5c0-3,14-13,31-22c17-8,28-11,24-5c-3,7-3,11,2,10
		c21-4,24,2,12,19c-10,12-8,12,10-3c19-16,20-21,7-23c-11-3-14-11-9-32c8-43-4-80-27-80c-16,0-18-5-14-32c6-41-7-62-32-54
		c-31,11-72,49-76,71c-4,23-39,46-52,33c-23-20-38-8-31,24l7,31l-27-21c-30-24-45-28-45-11c0,5,5,7,11,3c8-4,9,3,4,25
		c-6,28-4,31,16,31c22,0,22,0,3-16c-13-11-9-10,14,3l34,18l-39,3c-21,2-43,8-49,13c-8,7-14,6-18,0s-48-8-109-6c-118,4-127,5-127,17
		c0,4-7,8-15,8s-15-7-15-15c0-13-7-15-37-9c-45,8-55,13-48,24c2,4-9,13-25,20c-17,7-41,26-55,41c-13,16-29,29-36,29
		c-17,0-107,59-122,79c-7,10-20,20-30,24s-25,20-34,35c-9,16-26,33-37,38c-12,5-22,19-24,31c-4,25-32,37-64,28c-15-4-18-3-10,3
		c10,7,8,12-6,25c-18,16-20,16-37-3c-16-17-16-20-2-20c9,0,19-4,22-10c4-6-3-6-21,0c-15,6-29,8-32,6c-2-3-43,21-91,54l-87,58l15-79
		c9-43,19-79,23-79c3,0,5,8,3,18c-1,9,0,11,2,5c3-10,10-10,25-2c11,6,22,8,26,5c3-3,0-6-6-6s-26-13-44-28c-39-34-107-62-148-62
		c-16,0-39-10-53-22c-22-21-24-30-21-100c1-43-2-78-7-78s-9-5-9-11c0-5,5-7,10-4c6,3,10,2,10-3c0-16-40-22-147-22
		c-91,0-103-2-103-17c-1-10-9-82-18-160l-18-143l-41-42c-93-95-146-156-145-164c0-5,29-18,64-30l63-21l4-54c2-30,3-83,2-119
		c-2-74,11-75,15,0c3,58,9,70,34,70c18,0,18-2-2-62c-12-35-25-64-29-66s-20-14-36-28c-15-13-44-29-63-35s-66-26-105-44
		c-38-18-122-51-185-75s-116-44-118-46c-15-12,89,7,156,29c46,15,90,27,98,27c7,0,14,4,14,9s10,7,22,3c15-3,19-2,14,7
		c-6,9,0,10,20,5c19-5,25-4,20,5c-8,13,0,13,29,2c14-6,32-1,59,16l38,25l-4-40l-3-41l60,34c33,19,60,39,60,46c0,6,17,25,37,43
		c28,23,35,35,28,46c-8,12-12,12-32-5c-13-11-10-7,6,9l30,30l7-25c5-20-1-31-35-61c-22-21-38-38-34-38c13,0,289,162,284,167
		c-2,3-17-3-33-12l-28-17l25,21c14,11,19,21,12,21c-22,0-51-20-48-33c1-6,1-9-1-4c-3,4-11,7-19,7s-14,5-14,11c0,5,4,7,10,4
		c5-3,21,2,35,11c20,13,31,14,56,5c17-6,35-9,39-6s78-20,165-50c86-30,158-55,161-55c2,0,4,5,4,11c0,5-3,8-7,6c-5-3-17,0-28,4
		c-18,9-18,9,3,5c32-6,28,6-19,54c-22,23-31,37-20,31c44-24,98-119,108-188c3-24,8-43,12-43c3,0,6-17,7-37c0-21,2-57,5-80
		s0-76-8-118c-10-59-10-81,0-103c11-26,12-25,15,26c2,28,6,52,10,52c15,0,63-71,55-83c-5-8-10-4-15,13c-6,18-6,15-2-10
		c3-19,8-60,11-90s9-59,13-65c15-20,52-250,47-292c-2-23-14-60-26-83c-11-22-21-47-21-54s-16-42-35-78c-31-60-33-67-19-84
		c14-18,15-18,5,3c-7,14-8,24-1,28c5,3,11-4,11-17c2-36,3-41,18-75c11-27,11-44,1-95c-6-35-15-82-19-106l-8-43l27,26
		c14,14,29,25,33,25s29-14,56-31c46-28,53-37,81-112c18-45,41-97,52-115s22-49,23-69l4-35l-20,21c-11,11-23,21-26,21
		c-4,0,5-12,19-27c39-42,53-79,73-183c10-52,20-98,22-102c2-5,22,1,44,13l40,20l-31,42l-32,42l34-39l35-38l43,22l43,22l18-23
		c20-25,21-28,23-71c2-24-2-28-26-28c-15,0-28-4-28-9s-10-7-22-5c-13,3,4-7,37-21c33-14,65-23,73-20c7,2,11,1,8-4s19-19,49-31
		s55-26,55-31s6-9,14-9s26-14,40-31c17-20,26-25,26-15c0,23,26,19,44-6c9-12,16-17,16-10c0,16,43,15,85-2c18-8,36-12,39-8
		c3,3,6,1,6-4c0-6,16-16,35-23s35-17,35-23c0-5,6-8,13-5c6,2,46-12,87-32c70-34,77-40,107-97c57-107,185-455,181-491
		c-3-24,0-33,11-33s11-4-4-20c-11-12-15-28-12-41c3-12,2-31-3-43c-7-19-5-22,13-22c20,1,22-4,22-46c0-27-3-48-7-48c-5,0-8-5-8-12
		c0-6,10-2,23,10s28,22,35,22c13,0,113-204,160-325c33-87,62-190,62-224c0-12,4-21,9-21c10,0,54-111,46-118c-3-3-5,1-6,9
		c0,9-4,6-10-6c-7-16-8-13-4,13c2,17,0,32-5,32c-6,0-10,12-10,27c0,14-2,24-5,21c-5-4,60-523,69-553c1-5,8,19,16,53
		c8,38,11,96,8,150c-3,48-2,76,2,62c20-64,5-242-22-277c-5-6-5-29,1-55c17-76,33-289,23-301c-5-7-6-21-2-32c4-12,2-31-7-48
		c-12-24-12-30,2-44c13-13,15-31,11-103c-5-84-5-88,20-111c33-30,77-99,70-107c-11-10,27-42,51-42c15,0,42-17,71-45
		c26-24,71-66,100-92l54-48l-7,50c-4,28-8,54-9,60c0,5,14,16,32,24c17,8,32,17,32,21c0,3-18,16-39,28c-44,25-45,25-66,137
		c-20,108-19,129,10,175l25,39l-35,27c-35,26-45,44-24,44c5,0,7-4,4-10c-3-5-4-10-2-10c5,0,177,257,177,264c0,10-34-2-38-14
		c-3-7,0-10,7-6c7,5,9,1,4-9c-4-12-8-13-13-5c-11,17-22-4-14-27c4-13,3-15-4-4c-12,17-24-1-16-26c4-13,3-15-4-4c-12,17-24-1-16-26
		c4-13,3-15-4-4c-11,15-27-2-17-19c5-8-42-90-52-90c-2,0-1,4,2,10c9,14-8,13-23-2c-9-9-12-9-12,0c0,6,12,15,26,18c23,6,49,44,46,69
		c-1,16,161,249,176,251c7,1,8,0,2-3c-5-2-8-9-4-14c3-5,0-8-7-7c-6,2-14-3-17-11c-3-9,0-11,9-6c8,5,11,4,6-1s-14-9-19-9
		c-6,0-13-5-15-11s3-11,11-11c9,0,28,20,43,44s31,43,35,43s8,6,8,13c0,6,36,66,80,131c44,66,80,126,80,133s4,13,9,13
		c10,0,107,151,103,163c-1,4,2,7,7,7c4,0,34,40,65,90c72,112,95,132,147,124c27-5,39-3,39,5c0,7-5,9-12,5s-8-3-4,4
		c11,19,24,14,29-10c2-13,5-6,6,17c0,22,9,72,20,110c23,86,35,147,32,160c-2,5,1,7,5,2c6-6,132,177,207,300c5,8-9,21-40,38
		c-58,30-83,46-101,62c-7,7-18,13-24,13s-25,11-43,24c-30,23-106,51-132,49c-7,0-10,4-6,10s0,8-11,4c-9-4-15-3-12,1c3,5-20,21-50,35
		c-31,15-53,23-49,17c3-6,0-7-9-4s-13,10-11,15c5,8-105,70-122,69c-4-1,18-14,50-31c31-16,57-32,57-34c0-3-27,8-60,25s-59,34-57,38
		c1,4-8,17-21,30c-23,23-30,52-12,52c24,0,7,18-30,33c-22,8-40,22-40,29c0,9-22,18-64,25c-36,6-90,23-122,37l-57,26l46,37
		c53,43,49,48-40,56c-43,3-68,11-84,26c-16,14-26,18-34,11c-7-6-28-10-46-11c-115-1-125,1-217,46c-99,48-114,53-106,31
		c8-21-9-26-31-10c-10,8-14,14-9,14c6,0,15-5,21-11c9-9,12-7,10,10c-1,18-24,34-111,79c-61,31-114,59-118,60c-4,2-8-8-8-22
		s-5-26-10-26c-9,0-289,137-299,146c-13,12,33,76,66,94s21,20-23,3c-6-2-14,6-17,18l-6,21l-34-21c-27-16-61-23-169-31
		c-75-5-143-7-152-4c-8,3-18,15-22,26c-8,26,5,146,17,153c5,4,9,20,9,37c0,62,25,93,101,123c69,28,70,28,123,12c68-22,87-22,79-1
		c-7,20,13,34,50,34c23,0,50-22,138-109c60-60,111-106,114-101s8,30,11,57c4,31,30,93,71,173c35,69,57,116,49,106c-9-11-16-16-16-12
		c0,5-8,3-17-4c-10-7-4-1,12,14c17,14,37,33,45,40c8,8,30,20,48,28c32,13,34,16,35,68c2,47,8,65,42,115s53,67,116,100
		c41,22,95,53,118,68c57,38,97,54,274,112c143,48,146,49,117,61c-16,7-30,17-30,23c0,13,56,31,97,31c31,0,34-2,29-22
		c-3-13-3-18,0-12c6,14,42,7,65-12c9-8,19-11,24-7c4,5,5,3,2-4c-7-10,41-58,50-50c2,2-4,21-12,41c-9,21-19,66-22,101l-6,64l37,21
		c20,12,33,26,30,31s1,6,8,4c8-3,21,0,31,7c15,12,11,17-36,46c-49,31-38,15,13-19c18-12,21-17,10-24c-9-5-11-4-6,3c4,7,3,12-3,12
		c-13,0-121,103-121,116c0,6-14,20-30,33c-17,12-28,26-25,31s-7,16-23,24c-36,19-65,61-70,101c-1,17-9,50-17,75s-14,74-14,110
		s1,89,1,119s3,49,7,42c5-7,13,33,20,89c6,56,9,105,6,110c-3,4-15,6-28,4c-20-4-20-4-2,4c14,7,27,4,44-9c23-18,24-18,57,14
		c19,17,47,38,62,47c16,9,28,25,30,39c3,27-16,54-33,47c-7-2-18,0-26,6c-11,8-10,9,4,4c26-8,21-2-28,33c-43,30-58,65-38,84
		c3,4,7,36,7,71c1,59-1,66-25,82c-15,10-34,31-44,46c-9,16-28,36-41,45c-44,28-78,149-55,192c11,20,10,21-51,22c-35,1-81,3-103,5
		c-22,1-48,3-58,4s-20,7-23,14c-6,15-62,12-78-4c-6-6-32-10-60-10h-50l38,34c20,19,42,37,49,39s-10,9-38,15c-27,6-52,9-56,6
		c-4-2-9,1-11,7c-6,17-53-9-78-44c-13-16-18-27-12-23c6,3,13,2,17-4c3-5-3-10-14-10c-24,0-26,20-12,84c7,28,7,36-2,27
		c-16-16-27-14-27,7c0,9-4,13-8,7c-4-5-12-11-19-12c-7-2-35-16-62-33c-36-22-48-35-44-48c2-10-2-24-10-31c-17-14-8-62,17-90
		c8-9,21-32,29-52c16-40,12-52-41-118l-20-24l-32,44c-17,24-38,57-46,72s-18,26-22,23c-13-8-33,10-34,30c-1,26,27,127,43,151
		c6,11,27,28,45,38l34,18l-26,23c-30,28-28,28-67,8c-61-32-69-35-73-31c-6,5,21,146,30,154c13,14,126,16,142,3c12-11,15-11,12,0
		c-2,9,8,13,32,14c33,1,35,3,32,31c-2,17-12,43-23,58c-16,22-19,37-14,68c4,21,4,39,1,39c-15,0-45-41-51-69c-13-61-42-51-73,27
		c-13,31-27,64-32,73s-4,22,2,30c8,11,9,10,4-3c-3-10-1-18,4-18c6,0,10,10,10,23c1,12,7,33,14,46s11,32,9,41c-3,9,0,43,6,75
		s10,59,8,61C3053.2,7029.9,3035.2,6999.9,3014.2,6961.9z M3030.2,6940.9c-3-15-9-25-14-23c-4,3-3,17,3,30
		C3033.2,6978.9,3037.2,6975.9,3030.2,6940.9z M1307.2,6682.9c32-22,61-44,65-49c5-10-25-31-42-31c-4,1,3,7,16,14l24,13l-54,37
		l-54,36l-6-27c-4-16-7-21-8-13s-4,25-7,38c-4,12-3,22,0,22C1245.2,6722.9,1275.2,6704.9,1307.2,6682.9z M1461.2,6664.9c3-5-1-9-9-9
		s-12,4-9,9c3,4,7,8,9,8S1458.2,6668.9,1461.2,6664.9z M2887.2,6566.9c0-2-10-8-22-14c-21-10-21-10-5,3c15,13,16,19,5,42l-12,26
		l-18-23c-18-23-18-22-2,14l17,37l19-40C2879.2,6588.9,2887.2,6568.9,2887.2,6566.9z M2887.2,6528.9c0-3-4-8-10-11c-5-3-10-1-10,4
		c0,6,5,11,10,11C2883.2,6532.9,2887.2,6530.9,2887.2,6528.9z M2949.2,6495.9c-4-20-7-23-10-10c-2,10-13,17-30,18c-27,1-27,1,3,9
		c17,4,33,8,36,9C2951.2,6521.9,2952.2,6510.9,2949.2,6495.9z M2934.2,6420.9c-3-8-6-5-6,6c-1,11,2,17,5,13
		C2936.2,6436.9,2937.2,6427.9,2934.2,6420.9z M3248.2,6361.9c-12-10-29-15-37-12c-12,4-9,10,12,24
		C3257.2,6395.9,3278.2,6385.9,3248.2,6361.9z M3179.2,6310.9c-6-6-12-5-17,3c-6,8-4,10,5,4c10-6,12-4,7,7c-3,9-3,19,1,23s9-1,10-10
		C3187.2,6328.9,3184.2,6315.9,3179.2,6310.9z M842.2,6262.9c-3-5-13-10-21-10s-14,5-14,10c0,6,9,10,21,10
		C839.2,6272.9,845.2,6268.9,842.2,6262.9z M3437.2,6210.9c0-25-7-49-17-60c-25-28-25-124,1-154c15-16,20-35,19-66l-2-43l15,40
		c13,36,14,37,9,8c-5-40-52-116-65-108c-6,4-27,32-47,63c-35,54-38,63-41,149c-2,51-8,91-13,87c-10-6-4,18,14,54c12,26,72,66,86,58
		c5-4,12-2,16,4C3426.2,6264.9,3437.2,6250.9,3437.2,6210.9z M3477.2,6237.9c-7-8-16-15-21-15s-9,7-9,15c0,9,9,15,21,15
		C3486.2,6252.9,3487.2,6250.9,3477.2,6237.9z M3835.2,6230.9c-2-6-11-13-19-16c-12-3-12-2,0,6c11,8,10,11-5,15c-16,4-15,5,4,6
		C3829.2,6242.9,3837.2,6237.9,3835.2,6230.9z M3317.2,6224.9c0-11-22-32-32-32c-5,0-4,9,2,20
		C3298.2,6232.9,3317.2,6240.9,3317.2,6224.9z M809.2,6166.9c-8-14-10-11-10,12c0,16,3,34,7,39
		C816.2,6233.9,819.2,6184.9,809.2,6166.9z M2637.2,6198.9c0-3-4-8-10-11c-5-3-10-1-10,4c0,6,5,11,10,11
		C2633.2,6202.9,2637.2,6200.9,2637.2,6198.9z M2692.2,6182.9c8-13-15-13-35,0c-12,8-11,10,7,10
		C2676.2,6192.9,2689.2,6188.9,2692.2,6182.9z M827.2,6142.9c0-5-5-10-11-10c-5,0-7,5-4,10c3,6,8,10,11,10
		C825.2,6152.9,827.2,6148.9,827.2,6142.9z M794.2,6070.9c-2-13-4-5-4,17c-1,22,1,32,4,23C796.2,6100.9,796.2,6082.9,794.2,6070.9z
		 M3031.2,6101.9c-3-5-10-7-15-3c-5,3-7,10-3,15c3,5,10,7,15,3C3033.2,6113.9,3035.2,6106.9,3031.2,6101.9z M827.2,6047.9
		c-24-25-45-45-47-45s-3,10-3,23c0,15,3,18,8,9c6-9,16-4,36,17c25,26,26,30,9,34c-11,3-7,5,12,6l29,1L827.2,6047.9z M3079.2,6027.9
		c3,0,10-4,15-9c5-6,2-6-6-1c-11,6-13,4-8-8c9-25,2-21-18,9c-11,17-12,23-4,18S3075.2,6027.9,3079.2,6027.9z M3174.2,6000.9
		c-3-7-5-2-5,12s2,19,5,13C3176.2,6018.9,3176.2,6006.9,3174.2,6000.9z M3043.2,5974.9c-3-2-13,1-22,6c-14,8-26,5-49-10l-30-20
		l29,25c24,21,33,23,53,14C3037.2,5984.9,3045.2,5977.9,3043.2,5974.9z M2882.2,5972.9c4-6,11-8,16-5c5,4,9-3,9-13c0-11,7-25,15-32
		s15-18,15-25c0-10-12-7-40,8c-31,17-40,28-40,50C2857.2,5982.9,2870.2,5991.9,2882.2,5972.9z M3195.2,5931.9c2-23,0-30-6-20
		c-5,7-7,22-5,32c3,11,0,19-6,19c-7,0-9-5-5-12s3-8-5-4c-14,9-4,29,12,23C3187.2,5967.9,3193.2,5950.9,3195.2,5931.9z
		 M3057.2,5949.9c0-2-10-12-21-23c-22-19-22-19-8,4C3040.2,5949.9,3057.2,5960.9,3057.2,5949.9z M2943.2,5933.9c-10-15,32-44,55-38
		c16,4,19,3,11-5c-16-16-54-2-75,27c-16,22-16,25-2,25C2941.2,5942.9,2946.2,5938.9,2943.2,5933.9z M3660.2,5892.9
		c24-19,53-87,42-99c-3-2-5,2-5,10c0,24-26-23-37-68c-9-36-9-41,6-36c9,4,22,11,29,16c16,13,93,27,86,16c-3-5-14-9-25-9
		c-14,0-19-7-19-25c0-14,4-25,9-25s8,8,6,18c-1,9,0,11,2,4c3-7,10-9,16-5c7,4-1-8-17-27c-42-50-96-88-136-96c-19-4-46-16-60-27
		c-23-18-23-20-4-15c33,8,24-18-17-48c-21-16-27-24-14-20c43,11,157,36,169,36c8,0,24-27,36-59c15-40,26-58,35-55c8,3,20-5,28-18
		c17-26,49-202,41-223c-7-17-40-11-68,12c-19,17-20,17-7,1c7-10,9-18,3-18c-15,0-21,23-18,79c3,39-1,55-13,64c-9,7-31,31-50,55
		c-22,28-39,41-50,38c-9-3-39,3-68,13l-51,17l-6-29c-3-16-6-40-6-53s-4-24-9-24s-5,21,0,47s7,54,4,61c-3,8,0,10,6,6c7-4,10-1,7,7
		s-10,14-16,14s-17,6-23,13c-10,9-10,12-1,12c7,0,12-5,12-12c0-6,3-8,6-5c4,4,1,13-6,22s-10,18-7,22c4,3-9,24-27,47
		c-60,74-81,138-40,122c8-3,14-1,14,4c0,6,9,10,20,10s20,4,20,10c0,5,15,20,33,32c21,15,31,30,29,43c-1,12,11,40,28,63
		c16,23,31,47,32,54c4,17,31,46,44,47C3629.2,5912.9,3646.2,5903.9,3660.2,5892.9z M656.2,5825.9c-12-15-12-16,6-9c15,5,17,4,8-5
		c-17-17-37-1-22,17c6,8,14,14,16,14C667.2,5842.9,663.2,5834.9,656.2,5825.9z M3361.2,5826.9c3-8,2-12-4-9s-10,10-10,16
		C3347.2,5847.9,3354.2,5844.9,3361.2,5826.9z M652.2,5734.9c-3-3-11,0-18,7c-9,10-8,11,6,5C650.2,5743.9,655.2,5737.9,652.2,5734.9
		z M1296.2,5595.9c0-11-3-13-6-5c-7,19-34,14-78-13c-22-13-44-24-50-25c-5,0,13,14,40,30C1259.2,5616.9,1297.2,5621.9,1296.2,5595.9
		z M1327.2,5562.9c-19-5-38-6-42-2s12,8,35,9l42,1L1327.2,5562.9z M3270.2,5546.9c7,1,9,1,4-1c-4-3-4-10,0-16c4-7-2-5-12,3
		c-17,14-17,14-7-5c6-11,32-42,58-70c26-27,41-42,34-32c-18,24-7,21,16-5c10-12,13-18,7-14c-26,15-11-10,35-59c44-48,44-43-3,16
		c-11,14-1,5,22-20s40-47,38-49c-2-3,3-17,12-33c16-27,16-28-16-58c-18-17-39-31-47-31c-19,0-18-6,12-45c24-32,24-35,10-62
		c-8-15-15-24-16-20c0,5,5,17,11,28c8,17,5,27-16,55c-26,33-26,54-1,54c6,0,17,5,23,11c9,9,6,17-10,31c-22,19-22,19,8,2l30-17
		l-30,26c-31,27-51,35-39,15c4-7,3-8-5-4c-6,4-9,11-6,15c6,11-133,103-145,96c-5-3-12,0-16,6c-5,8-3,9,7,4c12-8,12-6,0,8
		c-15,19-36,23-25,5c4-7,3-8-5-4c-6,4-9,11-6,16c3,4-6,15-20,24c-34,22-42,20-14-5l24-20l-28,17c-15,9-25,19-22,22c2,3-1,12-7,20
		c-10,12-5,20,27,48c22,18,52,36,68,39c15,4,27,12,28,18c0,9,2,9,5,0C3256.2,5548.9,3264.2,5544.9,3270.2,5546.9z M1217.2,5542.9
		c8-5,11-10,5-10c-5,0-17,5-25,10s-10,10-5,10C1198.2,5552.9,1209.2,5547.9,1217.2,5542.9z M1327.2,5502.9c8-5,11-10,5-10
		c-5,0-17,5-25,10s-10,10-5,10C1308.2,5512.9,1319.2,5507.9,1327.2,5502.9z M3954.2,5506.9c-3-3-12-4-19-1c-8,3-5,6,6,6
		C3952.2,5512.9,3958.2,5509.9,3954.2,5506.9z M3414.2,5472.9c6,0,16-7,23-15c10-12,7-12-19,1c-17,9-31,20-31,25c0,6-8,5-20-1
		c-11-6-17-16-14-22c4-7,3-8-4-4c-18,11-14,22,11,33c17,8,25,8,33-3C3399.2,5478.9,3409.2,5472.9,3414.2,5472.9z M3597.2,5487.9
		c-47-18-58-18-34,0c10,8,30,14,44,14C3629.2,5501.9,3628.2,5499.9,3597.2,5487.9z M1387.2,5482.9c8-5,11-10,5-10c-5,0-17,5-25,10
		s-10,10-5,10C1368.2,5492.9,1379.2,5487.9,1387.2,5482.9z M3077.2,5397.9c-24-25-46-45-49-45s15,20,39,45s46,45,49,45
		S3101.2,5422.9,3077.2,5397.9z M796.2,5429.9c-16-13-99-57-99-53c0,7,83,56,94,56C796.2,5432.9,798.2,5431.9,796.2,5429.9z
		 M782.2,5364.9c-6-5-27-19-47-31l-38-23l1,29c1,17,3,21,6,11c6-22,6-22,45,2C783.2,5373.9,798.2,5378.9,782.2,5364.9z
		 M2968.2,5297.9c-25-27-39-51-35-58c5-9,4-9-7,1s-5,20,31,57C3014.2,5355.9,3022.2,5355.9,2968.2,5297.9z M3367.2,5266.9
		c0-3-20,9-45,26s-45,33-45,36s20-9,45-26S3367.2,5269.9,3367.2,5266.9z M3843.2,5310.9c13-16,14-19,2-10c-13,10-17,10-21,0
		c-3-7-6-3-6,10C3817.2,5337.9,3819.2,5337.9,3843.2,5310.9z M3867.2,5198.9c-10-34-14-37-22-23c-5,10-7,25-5,35c3,12,5,9,7-8
		c1-23,2-23,10-5c5,11,10,40,11,65c2,42,3,42,6,10C3877.2,5253.9,3873.2,5219.9,3867.2,5198.9z M3834.2,5250.9c-3-7-5-2-5,12
		s2,19,5,13C3836.2,5268.9,3836.2,5256.9,3834.2,5250.9z M3047.2,5097.9l85-90l-87,85c-49,46-88,89-88,94s1,7,3,5
		C2961.2,5188.9,3000.2,5146.9,3047.2,5097.9z M1587.2,5117.9c0-8-8-15-17-15c-15,0-16,2-3,10s12,10-2,10c-10,0-18-7-18-15
		s-4-15-10-15c-5,0-10,9-10,20c0,16,7,20,30,20C1577.2,5132.9,1587.2,5127.9,1587.2,5117.9z M3402.2,4989.9c-8-21-18-37-20-37
		c-3,0,2,16,10,36s15,39,15,42s2,3,5,0S3410.2,5009.9,3402.2,4989.9z M3190.2,4977.9c12-2,33-6,47-8c20-3,18-5-8-6
		c-36-1-92,23-92,40c0,6,7,3,16-5C3161.2,4989.9,3178.2,4980.9,3190.2,4977.9z M3352.2,4976.9c9-14,15-28,12-30c-2-2-10,7-17,21
		c-18,34-30,31-31-7c-1-25-3-27-6-10c-5,27,2,52,16,52C3331.2,5002.9,3342.2,4990.9,3352.2,4976.9z M1621.2,4967.9c3-8,1-25-5-37
		c-9-21-9-21-4,4c3,15,1,30-5,33s-10-4-11-17c0-13-3-17-6-10c-6,16,3,42,16,42C1611.2,4982.9,1617.2,4975.9,1621.2,4967.9z
		 M3290.2,4945.9c-7-2-19-2-25,0c-7,3-2,5,12,5S3296.2,4948.9,3290.2,4945.9z M1609.2,4880.9c-7-7-12-8-12-2c0,14,12,26,19,19
		C1618.2,4894.9,1615.2,4886.9,1609.2,4880.9z M1647.2,4750.9c0-18,2-58,5-88c4-53,4-52-9,15c-8,39-11,74-9,79c3,4-1,12-8,17
		c-11,7-10,9,4,9C1643.2,4782.9,1647.2,4774.9,1647.2,4750.9z M4145.2,4675.9c-41-5-49-21-22-47c13-14,13-16,1-16c-8,0-17,10-21,23
		c-11,43-8,47,37,45l42-1L4145.2,4675.9z M4192.2,4632.9c-3-5-16-10-28-9c-20,1-20,2,3,9c14,4,26,8,28,9
		S4195.2,4638.9,4192.2,4632.9z M3778.2,4615.9c13-16,12-17-3-5c-19,15-74,12-71-4c1-6-5-11-13-11c-11,0-11,4,3,19
		C3715.2,4637.9,3760.2,4637.9,3778.2,4615.9z M3878.2,4613.9c-8-5-11-16-7-29c9-27-12-39-30-18c-8,9-9,11-2,6c19-16,30-12,23,10
		c-7,23,1,40,18,40C3888.2,4622.9,3888.2,4619.9,3878.2,4613.9z M3752.2,4592.9c-27-12-43-12-25,0c8,5,22,9,30,9
		C3767.2,4601.9,3765.2,4598.9,3752.2,4592.9z M3937.2,4587.9c10-13,9-15-9-15c-11,0-21-4-21-10c0-5,7-10,16-10c22,0,13-20-17-38
		l-24-14l21,19c20,18,20,20,5,31c-15,10-15,12,2,26c18,14,18,14,0,19c-14,4-15,5-2,6C3917.2,4601.9,3930.2,4595.9,3937.2,4587.9z
		 M3793.2,4557.9l-29-23l36-16c50-20,47-28-3-9c-22,9-40,19-40,24c0,7,51,48,60,48C3820.2,4581.9,3809.2,4571.9,3793.2,4557.9z
		 M3920.2,4491.9c15,6,27,8,27,6c0-3-11-10-25-15c-31-12-59-1-62,25c-1,18,0,18,16-3C3890.2,4484.9,3897.2,4482.9,3920.2,4491.9z
		 M3947.2,4428.9c0-2-9-6-20-9s-18-1-14,4C3918.2,4432.9,3947.2,4436.9,3947.2,4428.9z M4165.2,4407.9c-3-3-9,2-12,12
		c-6,14-5,15,5,6C4165.2,4418.9,4168.2,4410.9,4165.2,4407.9z M1568.2,4299.9c-10-9-11-8-5,6c3,10,9,15,12,12
		S1575.2,4306.9,1568.2,4299.9z M3542.2,4268.9c-11-8-24-12-29-8c-5,3-1,9,10,13C3554.2,4285.9,3562.2,4283.9,3542.2,4268.9z
		 M1601.2,4076.9c3-8,2-12-4-9s-10,10-10,16C1587.2,4097.9,1594.2,4094.9,1601.2,4076.9z M1596.2,4031.9c-16-10-23-4-14,10
		c3,6,11,8,17,5C1605.2,4042.9,1604.2,4037.9,1596.2,4031.9z M1587.2,3978.9c0-3-4-8-10-11c-5-3-10-1-10,4c0,6,5,11,10,11
		C1583.2,3982.9,1587.2,3980.9,1587.2,3978.9z M3113.2,3810.9c4-7,3-8-4-4c-8,5-12-2-13-21c-1-18-3-22-6-10c-5,18,2,47,11,47
		C3104.2,3822.9,3109.2,3817.9,3113.2,3810.9z M3142.2,3792.9c-9-16-18-30-21-30c-2,0,2,14,11,30c9,17,18,30,21,30
		C3155.2,3822.9,3151.2,3809.9,3142.2,3792.9z M1885.2,3723.9c18-22,32-50,31-63c-1-22-1-22-9,3c-8,29-51,91-57,85c-3-2,5-22,16-45
		c29-56,25-66-4-11C1820.2,3770.9,1833.2,3787.9,1885.2,3723.9z M3110.2,3737.9c-3-9-8-14-10-11c-3,3-2,9,2,15
		C3111.2,3757.9,3117.2,3754.9,3110.2,3737.9z M3084.2,3684.9c-13-29-15-25-9,23c4,31,6,36,12,20
		C3091.2,3716.9,3090.2,3697.9,3084.2,3684.9z M2933.2,3644.9c-10-2-22,0-28,6s0,7,19,4C2945.2,3649.9,2947.2,3647.9,2933.2,3644.9z
		 M1969.2,3589.9c11-15,17-33,15-40c-4-8-6-7-6,3c-1,8-10,26-21,40s-19,34-19,45l1,20l5-20
		C1947.2,3626.9,1958.2,3605.9,1969.2,3589.9z M1927.2,3589.9c0-12,0-11-24,28l-17,30l20-24
		C1918.2,3610.9,1927.2,3595.9,1927.2,3589.9z M2962.2,3631.9c-4-5,1-19,11-30c9-10,15-21,12-24c-2-3-18,9-34,27c-16,17-24,28-17,24
		c6-3,14-2,18,4c3,5,8,10,11,10S2965.2,3637.9,2962.2,3631.9z M1947.2,3537.9c0-5-5-3-10,5s-10,20-10,25c0,6,5,3,10-5
		S1947.2,3543.9,1947.2,3537.9z M1896.2,3442.9c-1-31-2-32-8-10c-4,14-10,43-13,65l-6,40l13-30
		C1890.2,3491.9,1896.2,3461.9,1896.2,3442.9z M1976.2,3467.9c0-5-6,1-14,15s-14,30-14,35c0,6,6-1,14-15
		S1976.2,3473.9,1976.2,3467.9z M2040.2,3486.9c19-39,17-49-16-65c-20-10-20-9,2,9c22,18,23,20,7,50c-9,17-24,33-33,35
		c-15,4-14,5,3,6C2017.2,3522.9,2028.2,3511.9,2040.2,3486.9z M1997.2,3417.9c0-5-5-3-10,5s-10,20-10,25c0,6,5,3,10-5
		S1997.2,3423.9,1997.2,3417.9z M1957.2,3387.9c0-2-13-11-30-20c-27-14-30-14-30,0c0,9,4,13,10,10c5-3,18-1,27,4
		C1955.2,3393.9,1957.2,3394.9,1957.2,3387.9z M2605.2,3325.9c-15-2-42-2-60,0s-6,4,27,4S2620.2,3327.9,2605.2,3325.9z
		 M2635.2,3309.9c-15-12-41-30-58-40l-29-18l-37,34c-25,22-32,34-21,34c9,0,14-4,11-8c-2-4,9-17,24-28l29-20l49,34
		C2659.2,3336.9,2675.2,3342.9,2635.2,3309.9z M2115.2,3277.9c-8-8-48,8-42,16c3,5,14,4,25-2
		C2110.2,3285.9,2117.2,3279.9,2115.2,3277.9z M2932.2,3165.9c74-37,135-71,135-74c0-4-24,6-52,22c-29,16-56,29-59,29
		c-7,0-35-120-31-133c1-5-2-6-7-3c-5,4-4,27,5,59c19,71,18,77-13,78c-27,1-27,1-4,8c20,5,16,10-40,36c-34,17-66,29-71,28
		c-4-2-8,2-8,7c0,6,2,10,5,10S2858.2,3202.9,2932.2,3165.9z M2830.2,3177.9c-3-9-8-14-10-11c-3,3-2,9,2,15
		C2831.2,3197.9,2837.2,3194.9,2830.2,3177.9z M2854.2,3160.9c-3-8-6-5-6,6c-1,11,2,17,5,13
		C2856.2,3176.9,2857.2,3167.9,2854.2,3160.9z M3102.2,3122.9c1-10-2-17-7-14c-4,3-8,15-8,26
		C3087.2,3160.9,3100.2,3149.9,3102.2,3122.9z M3142.2,3114.9c-3-3-11,0-18,7c-9,10-8,11,6,5
		C3140.2,3123.9,3145.2,3117.9,3142.2,3114.9z M3182.2,3094.9c-3-3-11,0-18,7c-9,10-8,11,6,5
		C3180.2,3103.9,3185.2,3097.9,3182.2,3094.9z M3142.2,3092.9c3-6-1-7-9-4c-18,7-21,14-7,14
		C3132.2,3102.9,3139.2,3098.9,3142.2,3092.9z M3297.2,3037.9c0-3-22,6-50,20c-27,14-50,28-50,30c0,3,23-6,50-20
		C3275.2,3053.9,3297.2,3039.9,3297.2,3037.9z M3182.2,3072.9c3-6-1-7-9-4c-18,7-21,14-7,14
		C3172.2,3082.9,3179.2,3078.9,3182.2,3072.9z M3085.2,2957.9c0-22-3-19-9,15c-10,60-9,108,2,55
		C3082.2,3005.9,3086.2,2974.9,3085.2,2957.9z M3222.2,3052.9c3-6-1-7-9-4c-18,7-21,14-7,14
		C3212.2,3062.9,3219.2,3058.9,3222.2,3052.9z M3262.2,3032.9c3-6-1-7-9-4c-18,7-21,14-7,14
		C3252.2,3042.9,3259.2,3038.9,3262.2,3032.9z M2921.2,2984.9c2-4,0-14-6-22c-8-12-9-12-5,2c3,9,1,19-6,22c-9,3-9,5,0,5
		C2910.2,2992.9,2918.2,2988.9,2921.2,2984.9z M2982.2,2891.9c4-5,11-6,17-3c7,4,8,2,4-4c-5-8-20-2-47,20c-21,17-39,33-39,35
		C2917.2,2945.9,2976.2,2902.9,2982.2,2891.9z M3097.2,2912.9c0-5-8-10-17-10c-15,0-16,2-3,10
		C3096.2,2924.9,3097.2,2924.9,3097.2,2912.9z M3770.2,2905.9c-7-2-19-2-25,0c-7,3-2,5,12,5S3776.2,2908.9,3770.2,2905.9z
		 M3877.2,2899.9c0-2-12-14-27-28c-23-20-25-20-9-2c18,22,18,22-21,26c-36,3-35,4,10,5C3856.2,2901.9,3877.2,2901.9,3877.2,2899.9z
		 M3786.2,2866.9c14-12-19-1-35,12c-18,14-18,14,6,3C3771.2,2875.9,3784.2,2868.9,3786.2,2866.9z M2894.2,2846.9c-6-6-47,9-47,17
		c0,5,11,3,25-3S2896.2,2847.9,2894.2,2846.9z M3053.2,2843.9c-3-5,2-15,11-22c14-12,15-11,9,11c-6,23-6,23,9-3c23-40,13-44-27-8
		c-26,24-29,30-15,31C3050.2,2852.9,3056.2,2848.9,3053.2,2843.9z M2877.2,2807.9c0-5-5-3-10,5s-10,20-10,25c0,6,5,3,10-5
		S2877.2,2813.9,2877.2,2807.9z M2924.2,2826.9c-3-3-12-4-19-1c-8,3-5,6,6,6C2922.2,2832.9,2928.2,2829.9,2924.2,2826.9z
		 M3085.2,2768.9c4-4-17,2-47,14c-59,23-91,39-91,44C2947.2,2832.9,3075.2,2777.9,3085.2,2768.9z M2897.2,2757.9c0-5-5-3-10,5
		s-10,20-10,25c0,6,5,3,10-5S2897.2,2763.9,2897.2,2757.9z M2917.2,2707.9c0-5-5-3-10,5s-10,20-10,25c0,6,5,3,10-5
		S2917.2,2713.9,2917.2,2707.9z M3114.2,2710.9c-3-8-6-5-6,6c-1,11,2,17,5,13C3116.2,2726.9,3117.2,2717.9,3114.2,2710.9z
		 M3076.2,2628.9l-34-31l28,31c15,16,27,37,28,45c0,11,2,11,6,0C3107.2,2666.9,3094.2,2646.9,3076.2,2628.9z M2957.2,2597.9
		c0-5-5-3-10,5s-10,20-10,25c0,6,5,3,10-5S2957.2,2603.9,2957.2,2597.9z M2977.2,2547.9c0-5-5-3-10,5s-10,20-10,25c0,6,5,3,10-5
		S2977.2,2553.9,2977.2,2547.9z M2999.2,2523.9c8,11,9,11,6,1c-4-16-22-18-24-2c-2,7-1,6,3-1
		C2988.2,2513.9,2992.2,2514.9,2999.2,2523.9z M4714.2,2190.9c-59-91-130-201-134-207c-2-2-6-2-9,1c-6,7,177,287,189,288
		C4764.2,2272.9,4743.2,2235.9,4714.2,2190.9z M3036.2,2206.9c-14-18-24-11-15,11c3,9,11,13,16,10
		C3045.2,2222.9,3044.2,2216.9,3036.2,2206.9z M3235.2,1867.9c0-12-5-6-12,15c-8,19-11,39-8,45
		C3222.2,1938.9,3235.2,1898.9,3235.2,1867.9z M4324.2,1601.9c-9-6-15-14-12-20c4-5-1-12-9-15c-9-3-14-10-11-14c3-5-1-12-9-17
		c-8-4-14-11-13-14s-6-13-15-23c-28-28-21-7,20,56c20,32,44,58,52,58C4339.2,1611.9,4338.2,1609.9,4324.2,1601.9z M3361.2,1452.9
		c5-17,4-20-2-10c-5,8-13,26-16,40c-5,17-4,20,2,10C3350.2,1484.9,3358.2,1466.9,3361.2,1452.9z M3335.2,1377.9c0-25-2-24-9,10
		c-10,51-10,92,1,50C3331.2,1421.9,3335.2,1394.9,3335.2,1377.9z M3394.2,1360.9c-3-8-6-5-6,6c-1,11,2,17,5,13
		C3396.2,1376.9,3397.2,1367.9,3394.2,1360.9z M3355.2,1222.9c0-16-3-11-9,15c-4,22-8,51-7,65c0,16,3,11,9-15
		C3352.2,1265.9,3356.2,1236.9,3355.2,1222.9z M3364.2,1135.9c-3-10-5-4-5,12c0,17,2,24,5,18
		C3366.2,1158.9,3366.2,1144.9,3364.2,1135.9z M3995.2,1089.9c-6-13-13-16-20-9c-6,6-5,17,3,30
		C3995.2,1137.9,4010.2,1117.9,3995.2,1089.9z M3422.2,382.9c20-39,19-47-5-25c-11,10-20,26-20,37
		C3397.2,420.9,3404.2,416.9,3422.2,382.9z M3683.2,356.9c-5-17-3-23,4-19c6,4,10-5,10-22l-1-28l-14,26c-12,23-11,69,2,69
		C3687.2,382.9,3686.2,370.9,3683.2,356.9z M3721.2,116.9c9-3,16-14,16-23c-1-14-2-14-11,2c-5,9-17,17-26,17c-13,0-8-10,18-37l34-38
		l-37,34C3671.2,111.9,3674.2,134.9,3721.2,116.9z"/>
	<linearGradient id="SVGID_5_" gradientUnits="userSpaceOnUse" x1="3218.1924" y1="6368.9678" x2="3222.0959" y2="6368.9678">
		<stop  offset="0" style="stop-color:#000000"/>
		<stop  offset="0" style="stop-color:#EBEBEB"/>
		<stop  offset="0" style="stop-color:#A85700"/>
		<stop  offset="0.9926" style="stop-color:#FF8400"/>
	</linearGradient>
	<path class="st4" d="M3231.2,6366.9c-18-14-18-15,4-4c12,6,22,13,22,15C3257.2,6385.9,3252.2,6383.9,3231.2,6366.9z"/>
	<linearGradient id="SVGID_6_" gradientUnits="userSpaceOnUse" x1="3978.4856" y1="1099.2625" x2="3979.9661" y2="1099.2625">
		<stop  offset="0" style="stop-color:#000000"/>
		<stop  offset="0" style="stop-color:#EBEBEB"/>
		<stop  offset="0" style="stop-color:#A85700"/>
		<stop  offset="0.9926" style="stop-color:#FF8400"/>
	</linearGradient>
	<path class="st5" d="M3982.2,1101.9c-4-6-5-12-2-15c2-3,7,2,10,11C3997.2,1114.9,3991.2,1117.9,3982.2,1101.9z"/>
	<linearGradient id="SVGID_7_" gradientUnits="userSpaceOnUse" x1="9410.5615" y1="6869.7275" x2="9460.0527" y2="6869.7275">
		<stop  offset="0" style="stop-color:#000000"/>
		<stop  offset="0" style="stop-color:#EBEBEB"/>
		<stop  offset="0" style="stop-color:#A85700"/>
		<stop  offset="0.9926" style="stop-color:#FF8400"/>
	</linearGradient>
	<path class="st6" d="M9592.2,6972.9c3-5,0-7-9-4c-8,3-17-2-20-14c-6-19-39-23-53-7c-5,4-1,4,7,0c13-8,13-7,1,9c-14,16-16,14-31-32
		c-9-28-30-62-51-81c-32-31-33-32-9-27c110,22,113,21,90-39c-7-17-7-24,0-20c6,3,10,14,11,23c0,10,3,12,6,5c5-14,48-8,69,9
		c6,4,19,6,28,2c10-4,16-1,16,9c0,34,185,112,227,96c21-8,22-7,13,10c-7,15-5,22,11,33c19,12,6,14-105,12c-69-1-123,2-121,6
		c3,4-9,10-26,14C9601.2,6985.9,9585.2,6983.9,9592.2,6972.9z M9632.2,6962.9c-3-5-11-10-16-10c-6,0-7,5-4,10c3,6,11,10,16,10
		C9634.2,6972.9,9635.2,6968.9,9632.2,6962.9z M9516.2,6848.9c-3-3-25-9-49-15c-40-9-43-8-26,5
		C9458.2,6850.9,9528.2,6859.9,9516.2,6848.9z"/>
	<linearGradient id="SVGID_8_" gradientUnits="userSpaceOnUse" x1="3109.2297" y1="6870.5625" x2="3125.9404" y2="6870.5625">
		<stop  offset="0" style="stop-color:#000000"/>
		<stop  offset="0" style="stop-color:#EBEBEB"/>
		<stop  offset="0" style="stop-color:#A85700"/>
		<stop  offset="0.9926" style="stop-color:#FF8400"/>
	</linearGradient>
	<path class="st7" d="M3235.2,6955.9c-10-3-18-8-18-13s-24-29-54-53l-54-44l45-32c25-18,46-31,47-29s10,28,21,58c10,30,28,62,39,72
		c19,15,19,18,6,31C3259.2,6952.9,3244.2,6957.9,3235.2,6955.9z"/>
	<linearGradient id="SVGID_9_" gradientUnits="userSpaceOnUse" x1="7308.23" y1="6860.1221" x2="7315.8599" y2="6860.1221">
		<stop  offset="0" style="stop-color:#000000"/>
		<stop  offset="0" style="stop-color:#EBEBEB"/>
		<stop  offset="0" style="stop-color:#A85700"/>
		<stop  offset="0.9926" style="stop-color:#FF8400"/>
	</linearGradient>
	<path class="st8" d="M7355.2,6920.9c0-13,0-31,0-41c1-10-2-16-6-13c-4,2-15-17-24-42l-17-47l25,30c49,59,56,73,49,105
		C7374.2,6947.9,7358.2,6952.9,7355.2,6920.9z M7369.2,6890.9c-7-7-12-8-12-2c0,14,12,26,19,19
		C7378.2,6904.9,7375.2,6896.9,7369.2,6890.9z"/>
	<linearGradient id="SVGID_10_" gradientUnits="userSpaceOnUse" x1="7180.8203" y1="6835.4463" x2="7189.1011" y2="6835.4463">
		<stop  offset="0" style="stop-color:#000000"/>
		<stop  offset="0" style="stop-color:#EBEBEB"/>
		<stop  offset="0" style="stop-color:#A85700"/>
		<stop  offset="0.9926" style="stop-color:#FF8400"/>
	</linearGradient>
	<path class="st9" d="M7198.2,6888.9c-13-30-18-52-12-55c6-4,6-22,0-50c-5-24-7-46-4-49c12-12,45,33,45,61c0,25,3,28,21,24
		c20-5,20-5,3,21c-10,15-21,43-24,62l-7,35L7198.2,6888.9z"/>
	<linearGradient id="SVGID_11_" gradientUnits="userSpaceOnUse" x1="7031.856" y1="6760.9741" x2="7041.103" y2="6760.9741">
		<stop  offset="0" style="stop-color:#000000"/>
		<stop  offset="0" style="stop-color:#EBEBEB"/>
		<stop  offset="0" style="stop-color:#A85700"/>
		<stop  offset="0.9926" style="stop-color:#FF8400"/>
	</linearGradient>
	<path class="st10" d="M7063.2,6776.9c-11-27-23-54-28-61c-7-8-3-10,11-6c12,3,18,9,16,13c-3,5,9,5,27,0c17-6,33-8,35-7
		c1,2-6,21-16,43c-10,21-20,45-23,53C7083.2,6819.9,7073.2,6803.9,7063.2,6776.9z M7090.2,6773.9c3-13,1-18-9-14c-7,2-10,11-7,19
		C7081.2,6797.9,7084.2,6796.9,7090.2,6773.9z"/>
	<linearGradient id="SVGID_12_" gradientUnits="userSpaceOnUse" x1="6127.23" y1="6530.7842" x2="6172.9414" y2="6530.7842">
		<stop  offset="0" style="stop-color:#000000"/>
		<stop  offset="0" style="stop-color:#EBEBEB"/>
		<stop  offset="0" style="stop-color:#A85700"/>
		<stop  offset="0.9926" style="stop-color:#FF8400"/>
	</linearGradient>
	<path class="st11" d="M6487.2,6761.9c-30-21-63-49-73-62c-10-12-15-16-11-8s-19-6-52-30c-60-44-112-68-151-69c-25,0-29-10-12-27
		c8-8,1-18-25-38l-36-28l62-36c59-34,66-41,104-119c22-45,43-79,48-75c4,4,11,1,16-6c6-10,11-3,19,25c6,21,11,42,11,46s11,23,24,42
		c23,35,36,37,36,7c0-14-2-14-10-1s-10,12-10-2c0-10-6-18-12-18c-14-1,45-34,79-44c16-5,23-2,26,11c2,10,3,8,2-5c-1-12,2-25,6-28
		c10-6,12,41,9,178c-1,79,1,89,22,111c13,13,24,35,25,49c1,22-4,27-32,32c-35,7-67,33-40,33c8,0,12-4,9-9c-3-4-1-8,5-8
		c12,0,24,57,19,93l-3,26L6487.2,6761.9z M6536.2,6750.9c-1-24-3-27-6-10c-5,27-7,27-46-2c-35-25-66-43-56-32c7,7,103,76,106,76
		C6536.2,6782.9,6536.2,6767.9,6536.2,6750.9z M6527.2,6485.9c0-31-3-53-7-49s-6,25-4,48c2,28-1,38-9,33c-6-4-8-16-5-28
		c5-20,5-20-5-4c-9,15-8,22,6,38c9,10,19,19,21,19C6525.2,6542.9,6527.2,6517.9,6527.2,6485.9z M6192.2,6502.9c0-7-7-15-15-17
		c-13-4-13-3,0,6c8,5,11,13,7,17c-3,4-15,1-24-7c-16-13-17-12-4,4C6171.2,6524.9,6192.2,6523.9,6192.2,6502.9z M6494.2,6335.9
		c-3-2-14,0-24,7c-16,10-16,11,0,6c9-3,17,0,18,7c0,8,2,8,6-1C6497.2,6347.9,6497.2,6338.9,6494.2,6335.9z"/>
	<linearGradient id="SVGID_13_" gradientUnits="userSpaceOnUse" x1="3298.0337" y1="6768.8037" x2="3298.8345" y2="6768.8037">
		<stop  offset="0" style="stop-color:#000000"/>
		<stop  offset="0" style="stop-color:#EBEBEB"/>
		<stop  offset="0" style="stop-color:#A85700"/>
		<stop  offset="0.9926" style="stop-color:#FF8400"/>
	</linearGradient>
	<path class="st12" d="M3298.2,6766.9c0-11,3-14,6-6c3,7,2,16-1,19C3300.2,6783.9,3297.2,6777.9,3298.2,6766.9z"/>
	<linearGradient id="SVGID_14_" gradientUnits="userSpaceOnUse" x1="9759.2432" y1="6714.2451" x2="9766.9277" y2="6714.2451">
		<stop  offset="0" style="stop-color:#000000"/>
		<stop  offset="0" style="stop-color:#EBEBEB"/>
		<stop  offset="0" style="stop-color:#A85700"/>
		<stop  offset="0.9926" style="stop-color:#FF8400"/>
	</linearGradient>
	<path class="st13" d="M9765.2,6725.9c26-5,29-19,5-27c-10-3-1-3,21-1c43,5,51,9,41,24c-3,6-25,10-48,10
		C9761.2,6730.9,9752.2,6727.9,9765.2,6725.9z"/>
	<linearGradient id="SVGID_15_" gradientUnits="userSpaceOnUse" x1="3186.9248" y1="6549.1753" x2="3219.9553" y2="6549.1753">
		<stop  offset="0" style="stop-color:#000000"/>
		<stop  offset="0" style="stop-color:#EBEBEB"/>
		<stop  offset="0" style="stop-color:#A85700"/>
		<stop  offset="0.9926" style="stop-color:#FF8400"/>
	</linearGradient>
	<path class="st14" d="M3355.2,6668.9c-10-7-16-15-14-17c5-4-24-7-101-9c-50-1-66-11-43-25c6-4,8-11,5-16c-6-9,26-14,82-11
		c26,1,31-1,26-14c-3-9-9-12-12-7c-3,4-13,9-21,11c-11,3-10-1,4-17c11-12,15-27,12-39c-6-16,1-21,39-31c25-6,45-15,45-20
		c0-6,5-22,10-37c10-25,12-26,28-10c15,12,21,13,31,3s12-8,9,8c-3,21,11,24,45,10c10-4,17-3,17,4c0,6-9,11-20,11c-10,0-23,7-28,16
		c-5,8-19,21-33,27c-13,7-28,26-34,42c-5,17-17,36-25,43c-8,8-9,11-2,7s23,0,36,8c12,8,33,17,47,20c20,4,19,5-8,6c-30,1-63,23-63,42
		C3387.2,6685.9,3375.2,6684.9,3355.2,6668.9z M3332.2,6504.9c-3-3-11,0-18,7c-9,10-8,11,6,5
		C3330.2,6513.9,3335.2,6507.9,3332.2,6504.9z M3412.2,6443.9c3-5,1-12-5-16c-5-3-10,1-10,9
		C3397.2,6454.9,3403.2,6457.9,3412.2,6443.9z"/>
	<linearGradient id="SVGID_16_" gradientUnits="userSpaceOnUse" x1="8358.0342" y1="6658.8037" x2="8358.835" y2="6658.8037">
		<stop  offset="0" style="stop-color:#000000"/>
		<stop  offset="0" style="stop-color:#EBEBEB"/>
		<stop  offset="0" style="stop-color:#A85700"/>
		<stop  offset="0.9926" style="stop-color:#FF8400"/>
	</linearGradient>
	<path class="st15" d="M8358.2,6656.9c0-11,3-14,6-6c3,7,2,16-1,19C8360.2,6673.9,8357.2,6667.9,8358.2,6656.9z"/>
	<linearGradient id="SVGID_17_" gradientUnits="userSpaceOnUse" x1="11477.2295" y1="6392.9419" x2="11479.1045" y2="6392.9419">
		<stop  offset="0" style="stop-color:#000000"/>
		<stop  offset="0" style="stop-color:#EBEBEB"/>
		<stop  offset="0" style="stop-color:#A85700"/>
		<stop  offset="0.9926" style="stop-color:#FF8400"/>
	</linearGradient>
	<path class="st16" d="M11477.2,6392.9c0-19,3-21,12-12s9,15,0,24S11477.2,6411.9,11477.2,6392.9z"/>
	<linearGradient id="SVGID_18_" gradientUnits="userSpaceOnUse" x1="2988.8665" y1="6164.2964" x2="2991.5894" y2="6164.2964">
		<stop  offset="0" style="stop-color:#000000"/>
		<stop  offset="0" style="stop-color:#EBEBEB"/>
		<stop  offset="0" style="stop-color:#A85700"/>
		<stop  offset="0.9926" style="stop-color:#FF8400"/>
	</linearGradient>
	<path class="st17" d="M2997.2,6164.9c6-13,14-21,18-18c3,4-2,14-12,24C2985.2,6186.9,2985.2,6186.9,2997.2,6164.9z"/>
	<linearGradient id="SVGID_19_" gradientUnits="userSpaceOnUse" x1="7827.23" y1="6149.8398" x2="7828.7939" y2="6149.8398">
		<stop  offset="0" style="stop-color:#000000"/>
		<stop  offset="0" style="stop-color:#EBEBEB"/>
		<stop  offset="0" style="stop-color:#A85700"/>
		<stop  offset="0.9926" style="stop-color:#FF8400"/>
	</linearGradient>
	<path class="st18" d="M7827.2,6153.9c0-6,4-13,10-16s7,1,4,9C7834.2,6164.9,7827.2,6167.9,7827.2,6153.9z"/>
	<linearGradient id="SVGID_20_" gradientUnits="userSpaceOnUse" x1="727.2298" y1="5545.4419" x2="730.1072" y2="5545.4419">
		<stop  offset="0" style="stop-color:#000000"/>
		<stop  offset="0" style="stop-color:#EBEBEB"/>
		<stop  offset="0" style="stop-color:#A85700"/>
		<stop  offset="0.9926" style="stop-color:#FF8400"/>
	</linearGradient>
	<path class="st19" d="M737.2,5578.9c0-7-2-29-5-47l-5-34l14,35c18,42,19,60,6,60C742.2,5592.9,737.2,5586.9,737.2,5578.9z"/>
	<linearGradient id="SVGID_21_" gradientUnits="userSpaceOnUse" x1="5219.48" y1="5377.3262" x2="5256.7085" y2="5377.3262">
		<stop  offset="0" style="stop-color:#000000"/>
		<stop  offset="0" style="stop-color:#EBEBEB"/>
		<stop  offset="0" style="stop-color:#A85700"/>
		<stop  offset="0.9926" style="stop-color:#FF8400"/>
	</linearGradient>
	<path class="st20" d="M5407.2,5480.9c-30-4-84-5-119-2c-57,5-63,3-57-12c3-9,1-23-5-30c-9-11-9-14,0-14c7,0,10-4,7-9s1-11,9-15
		c9-3,15-18,15-36c0-16,5-30,11-30c5,0,15-13,20-30c12-33,19-36,37-18c9,9,16,8,30-5c17-16,20-15,48,14c25,26,64,53,91,62
		c13,4,59,52,56,59c-2,4,1,9,7,13s7,11,4,17c-4,6-3,8,2,5c6-3,16-2,24,4c11,6,2,9-27,9c-24,0-43,4-43,9
		C5517.2,5484.9,5469.2,5488.9,5407.2,5480.9z M5317.2,5301.9c0-11-4-17-10-14c-5,3-10,15-10,26s5,17,10,14
		C5313.2,5324.9,5317.2,5312.9,5317.2,5301.9z M5392.2,5292.9c-10-11-22-17-28-13c-5,3,1,12,14,19
		C5411.2,5316.9,5413.2,5315.9,5392.2,5292.9z"/>
	<linearGradient id="SVGID_22_" gradientUnits="userSpaceOnUse" x1="11025.5977" y1="4591.0088" x2="11030.8369" y2="4591.0088">
		<stop  offset="0" style="stop-color:#000000"/>
		<stop  offset="0" style="stop-color:#EBEBEB"/>
		<stop  offset="0" style="stop-color:#A85700"/>
		<stop  offset="0.9926" style="stop-color:#FF8400"/>
	</linearGradient>
	<path class="st21" d="M11042.2,4586.9c-18-16-22-22-9-15c18,9,53,42,43,41C11074.2,4611.9,11059.2,4600.9,11042.2,4586.9z"/>
	<linearGradient id="SVGID_23_" gradientUnits="userSpaceOnUse" x1="10740.9131" y1="3912.3169" x2="10745.4326" y2="3912.3169">
		<stop  offset="0" style="stop-color:#000000"/>
		<stop  offset="0" style="stop-color:#EBEBEB"/>
		<stop  offset="0" style="stop-color:#A85700"/>
		<stop  offset="0.9926" style="stop-color:#FF8400"/>
	</linearGradient>
	<path class="st22" d="M10757.2,3912.9c-14-11-20-20-14-20s19,9,29,20C10795.2,3937.9,10789.2,3937.9,10757.2,3912.9z"/>
	<linearGradient id="SVGID_24_" gradientUnits="userSpaceOnUse" x1="2760.021" y1="3703.3933" x2="2766.4028" y2="3703.3933">
		<stop  offset="0" style="stop-color:#000000"/>
		<stop  offset="0" style="stop-color:#EBEBEB"/>
		<stop  offset="0" style="stop-color:#A85700"/>
		<stop  offset="0.9926" style="stop-color:#FF8400"/>
	</linearGradient>
	<path class="st23" d="M2777.2,3702.9c36-11,52-11,45,0c-3,6-21,10-38,9C2753.2,3710.9,2753.2,3710.9,2777.2,3702.9z"/>
	<linearGradient id="SVGID_25_" gradientUnits="userSpaceOnUse" x1="2917.2297" y1="3324.6121" x2="2979.6895" y2="3324.6121">
		<stop  offset="0" style="stop-color:#000000"/>
		<stop  offset="0" style="stop-color:#EBEBEB"/>
		<stop  offset="0" style="stop-color:#A85700"/>
		<stop  offset="0.9926" style="stop-color:#FF8400"/>
	</linearGradient>
	<path class="st24" d="M2922.2,3414.9c-3-7-5-15-5-16c0-2,21-6,47-10c48-6,183-63,183-77c0-6,104-59,117-59c2,0,1,4-2,10s1,7,10,3
		c13-4,14-8,4-14c-26-16,2-21,143-24c98-3,135-1,119,6c-13,5-29,15-35,22c-6,8-72,30-146,51s-169,52-210,68
		C3049.2,3413.9,2930.2,3434.9,2922.2,3414.9z"/>
	<linearGradient id="SVGID_26_" gradientUnits="userSpaceOnUse" x1="10315.2295" y1="2898.5662" x2="10359.3359" y2="2898.5662">
		<stop  offset="0" style="stop-color:#000000"/>
		<stop  offset="0" style="stop-color:#EBEBEB"/>
		<stop  offset="0" style="stop-color:#A85700"/>
		<stop  offset="0.9926" style="stop-color:#FF8400"/>
	</linearGradient>
	<path class="st25" d="M10419.2,3269.9c-7-16-12-37-12-48c0-27-9-24-53,19l-39,37l35-75c104-225,210-423,222-413c4,5,5,1,3-7
		c-7-21,10-50,25-44c9,3,31-24,61-72c38-62,47-84,45-115c-4-50,6-58,25-20c10,19,12,32,6,36c-6,3-10,12-10,18c0,8,3,8,9-1
		c7-11,10-10,15,3c8,23,8,24-11,19c-10-2-23-1-29,3c-19,14-66,145-59,167c3,12,25,37,50,57l43,36l-54,54l-54,54l6-35
		c3-19,8-41,10-48s0-11-5-8s-11,28-15,55c-5,41-12,53-44,77c-20,15-31,21-24,14c6-8,12-19,12-25c-1-11-23,24-26,41c-1,6-13,23-28,39
		c-14,15-26,34-26,42s-4,12-9,9c-5-4-7,3-4,14c7,27-18,110-33,110c-7,0-14,8-17,18C10431.2,3293.9,10428.2,3291.9,10419.2,3269.9z
		 M10390.2,3176.9c-7-18-6-18-28,26l-18,35l26-24C10384.2,3200.9,10393.2,3183.9,10390.2,3176.9z M10704.2,2845.9
		c-23-24-29-26-37-13c-14,23-12,36,3,16c12-16,14-16,32,4s18,21-16,58l-34,37l40-37l40-38L10704.2,2845.9z M10651.2,2715.9
		c9-18,14-33,12-33c-6,0-36,55-36,66S10632.2,2751.9,10651.2,2715.9z"/>
	<linearGradient id="SVGID_27_" gradientUnits="userSpaceOnUse" x1="9532.46" y1="3140.4001" x2="9535.9375" y2="3140.4001">
		<stop  offset="0" style="stop-color:#000000"/>
		<stop  offset="0" style="stop-color:#EBEBEB"/>
		<stop  offset="0" style="stop-color:#A85700"/>
		<stop  offset="0.9926" style="stop-color:#FF8400"/>
	</linearGradient>
	<path class="st26" d="M9533.2,3153.9c-3-4,3-16,14-26c12-11,20-13,20-6c0,6-7,14-15,17c-8,4-12,10-9,15s3,9,0,9
		S9536.2,3158.9,9533.2,3153.9z"/>
	<linearGradient id="SVGID_28_" gradientUnits="userSpaceOnUse" x1="10002.4492" y1="2675.5898" x2="10044.3711" y2="2675.5898">
		<stop  offset="0" style="stop-color:#000000"/>
		<stop  offset="0" style="stop-color:#EBEBEB"/>
		<stop  offset="0" style="stop-color:#A85700"/>
		<stop  offset="0.9926" style="stop-color:#FF8400"/>
	</linearGradient>
	<path class="st27" d="M10372.2,2944.9c-16-26-42-64-58-84c-16-21-26-38-24-38c3,0-7-12-21-28c-15-15-40-45-57-65
		c-30-38-44-45-99-46c-38-1-30-10,12-13c29-2,30-3,15-20c-8-10-19-15-23-13c-4,3-10-4-13-14c-2-11-29-32-58-46c-47-24-51-29-36-40
		c10-7,16-17,15-23c-2-5,20-35,47-66c44-50,54-57,78-52c18,4,41-2,65-14c20-11,42-20,48-20c13,0,24,32,24,71c0,14,9,36,20,49
		s20,34,20,47c0,21,4,23,53,24c52,1,52,1,17,11c-19,5-41,15-48,20c-15,13-8,56,19,109l18,36l-35,13c-18,8-36,22-40,32
		c-3,12,14,54,46,114C10412.2,2991.9,10420.2,3021.9,10372.2,2944.9z M10278.2,2785.9c-5-10-17-27-26-38c-16-19-17-19-3,5
		c26,46,29,50,34,50C10286.2,2802.9,10283.2,2794.9,10278.2,2785.9z"/>
	<linearGradient id="SVGID_29_" gradientUnits="userSpaceOnUse" x1="10117.2295" y1="2654.7371" x2="10119.2295" y2="2654.7371">
		<stop  offset="0" style="stop-color:#000000"/>
		<stop  offset="0" style="stop-color:#EBEBEB"/>
		<stop  offset="0" style="stop-color:#A85700"/>
		<stop  offset="0.9926" style="stop-color:#FF8400"/>
	</linearGradient>
	<path class="st28" d="M10117.2,2651.9c0-5,5-7,10-4c6,3,10,8,10,11c0,2-4,4-10,4C10122.2,2662.9,10117.2,2657.9,10117.2,2651.9z"/>
	<linearGradient id="SVGID_30_" gradientUnits="userSpaceOnUse" x1="9962.126" y1="1527.8118" x2="10130.1357" y2="1527.8118">
		<stop  offset="0" style="stop-color:#000000"/>
		<stop  offset="0" style="stop-color:#EBEBEB"/>
		<stop  offset="0" style="stop-color:#A85700"/>
		<stop  offset="0.9926" style="stop-color:#FF8400"/>
	</linearGradient>
	<path class="st29" d="M10797.2,2527.9c20-12,22-14,7-15c-14,0-7-10,25-36c59-49,67-59,38-44c-14,7-29,19-33,26c-4,8-22,14-40,14
		c-27-1-29-2-14-11c9-5,22-7,29-3c6,4,8,3,5-3c-4-6,5-16,21-22c15-5,38-16,52-24c14-7,60-31,104-53c76-38,121-77,110-95
		c-12-20-247-180-258-176c-7,3-22-8-35-24c-13-16-45-44-71-63l-49-35l-30,28c-17,16-31,25-31,20s-9-18-20-29c-16-16-25-18-40-10
		c-16,8-18,8-14-5c3-8,10-12,15-9c12,7,11,2-7-34c-11-22-26-35-52-42c-41-11-75-30-54-30c20,0,14-26-13-58c-31-36-104-69-175-77
		c-74-9-140-34-142-54c-1-9-2-33-4-54c-3-46-15-61-99-118c-35-24-62-45-60-48c3-2,11,2,20,9s19,10,22,6c4-4,2-11-6-15
		c-8-5,6-16,44-31c80-33,85-40,85-123c0-68-3-76-45-141c-25-38-43-71-41-73s19,0,37,6c24,6,28,10,14,11c-11,1-24,2-30,1
		c-5-1-2,5,7,12c10,8,14,18,10,22c-4,5-1,5,6,1s9-12,6-18c-5-7-1-9,9-5c12,5,19-1,23-18c3-14,11-25,16-25s8-6,6-12
		c-8-23,14-36,33-19c9,9,29,26,43,39s30,21,35,18c12-8,42,4,36,14c-4,7,32,12,85,12c13,0,37,11,52,24c28,23,85,44,120,44
		c28,0,270-109,284-128c11-16,13-16,32,1c12,11,23,14,26,9c3-6,0-12-6-15c-8-2-1-10,15-17c31-15,36-36,10-43c-10-2-3-2,15,0
		c25,3,32,0,34-14c7-91,19-135,33-129c7,2,18-1,24-7c7-7,17-12,24-12s11-12,10-28c-1-18,2-25,9-21c6,4,8,3,4-4c-3-6-1-23,5-39
		c7-15,13-62,14-103c1-42,5-86,9-98c8-25,31-29,40-7c3,8,17,20,31,25s25,16,25,24c0,7,21,38,47,67c45,49,46,52,20,46
		c-36-10-35,7,3,83c23,46,27,60,15,60c-8,0-13-6-11-12c1-7,1-10-1-5c-3,4-10,4-16,1c-7-4-5,0,3,9c8,8,41,18,74,21s61,8,63,10
		c3,2-3,19-12,36c-14,27-15,37-4,61c6,16,16,32,21,35c5,4,2-8-7-26c-14-27-15-37-5-59c7-14,14-36,15-49c3-19,0-22-18-18
		c-12,3,2-6,32-19c29-14,56-23,59-20s1,5-5,5s-9,9-6,20s0,72-7,135l-11,115l38,45c30,36,43,45,64,42c19-2,25,1,22,10c-3,7-8,11-12,9
		c-3-2-6,6-6,19s3,21,8,18c4-2,7,1,7,6c0,6-4,11-10,11c-18,0-11,28,14,57c22,26,24,34,16,69c-6,26-5,42,2,49c8,7,9,6,3-4
		c-5-9-4-12,2-8c5,3,18,25,28,47c16,36,17,43,4,51c-22,13-24,11-26-24l-2-32l14,25c8,14,14,21,14,15c0-5-6-21-13-34
		c-13-24-14-24-20-4c-4,11-4,28,0,37c3,9,1,16-6,16c-6,0-9,4-6,8c3,5-6,15-19,22c-14,7-25,17-25,22s-7,17-16,25c-11,11-12,18-4,23
		c6,4,10,13,8,20s4,15,12,17c13,4,13,3,0-7c-20-15,18-5,74,21l41,19h-83c-46,0-81-4-78-9c3-4,29-6,58-3c29,2,50,2,47-2
		c-9-10-109-16-109-6c0,5-6,15-13,22c-34,34-107,189-107,228c0,19-4,30-8,23c-4-6-7,18-7,55s-4,104-8,150c-6,59-5,82,3,82
		c6,0,46-16,88-36c157-74,152-75,78,15c-36,43-66,82-66,85s9,6,20,6s20,5,20,10c0,6,21,10,48,11c51,0,142,16,105,18
		c-24,1-31,15-13,26c5,3,15,16,21,28c8,16,2,13-24-12l-36-34l-123,31c-68,18-127,38-133,45c-5,6-26,13-45,14c-35,2-209,55-242,74
		c-12,6-18,6-18-1c0-11-51-2-60,10c-3,4-23,10-45,14s-47,9-55,10c-8,2-28,8-43,15C10775.2,2546.9,10767.2,2544.9,10797.2,2527.9z
		 M11461.2,2332.9c15-15-23-24-47-12c-19,9-17,10,13,6l35-4l-35,15c-33,14-34,15-5,9C11439.2,2343.9,11456.2,2337.9,11461.2,2332.9z
		 M11522.2,2322.9c17-7,14-9-13-9c-20-1-31,3-27,9C11489.2,2334.9,11495.2,2334.9,11522.2,2322.9z M11167.2,2197.9c0-2-10-9-21-16
		c-15-8-19-8-15,0c9,14-28,14-57,0c-21-10-21-10-3,5C11089.2,2200.9,11167.2,2209.9,11167.2,2197.9z M11314.2,2180.9c2-16,0-19-6-9
		c-6,9-11,10-15,2c-4-6-12-11-18-11c-5,0,0,9,13,20c13,10,24,19,24,20C11313.2,2202.9,11314.2,2192.9,11314.2,2180.9z
		 M11027.2,2188.9c0-3-15-14-32-26l-33-22l30,26C11023.2,2193.9,11027.2,2195.9,11027.2,2188.9z M11180.2,2155.9c-7-2-19-2-25,0
		c-7,3-2,5,12,5S11186.2,2158.9,11180.2,2155.9z M11207.2,2070.9l-5-83l-3,69c-3,61,1,96,10,96
		C11211.2,2152.9,11210.2,2115.9,11207.2,2070.9z M10945.2,2123.9c-7-11-16-17-21-14c-4,3,0,11,10,19
		C10958.2,2146.9,10959.2,2145.9,10945.2,2123.9z M11264.2,2110.9c-3-7-5-2-5,12s2,19,5,13
		C11266.2,2128.9,11266.2,2116.9,11264.2,2110.9z M11324.2,2060.9c-2-13-4-3-4,22s2,35,4,23
		C11326.2,2092.9,11326.2,2072.9,11324.2,2060.9z M11004.2,2087.9c-33-30-40-31-58-7c-13,15-12,16,4,3c16-12,21-12,45,7
		C11032.2,2119.9,11038.2,2117.9,11004.2,2087.9z M11062.2,2069.9c15-4,14-5-7-6s-28,4-28,17c0,11,3,13,8,6
		C11039.2,2079.9,11051.2,2072.9,11062.2,2069.9z M11274.2,2070.9c-3-8-6-5-6,6c-1,11,2,17,5,13
		C11276.2,2086.9,11277.2,2077.9,11274.2,2070.9z M11316.2,1992.9c5,0,12,10,14,23c2,12,5,4,5-18s-2-34-5-27c-2,6-10,12-17,12
		c-13,0-36,41-36,63c1,7,7-3,15-20C11300.2,2007.9,11310.2,1992.9,11316.2,1992.9z M11076.2,1904.9c12-18,20-32,17-32
		c-15,0-56,78-55,105c1,29,2,29,8-6C11050.2,1951.9,11063.2,1921.9,11076.2,1904.9z M11194.2,1945.9c-3-10-5-4-5,12c0,17,2,24,5,18
		C11196.2,1968.9,11196.2,1954.9,11194.2,1945.9z M11161.2,1877.9c-19-15-30-19-33-12c-2,7-9,15-15,19c-8,6-7,8,1,8c6,0,15-4,18-10
		c8-13,45,10,46,30c0,12,2,12,6,1C11187.2,1906.9,11177.2,1890.9,11161.2,1877.9z M10057.2,1448.9c0-2-11-6-25-8c-13-3-22-1-19,3
		C10018.2,1452.9,10057.2,1456.9,10057.2,1448.9z M10094.2,1436.9c-3-3-12-4-19-1c-8,3-5,6,6,6
		C10092.2,1442.9,10098.2,1439.9,10094.2,1436.9z M10062.2,1422.9c3-6-1-7-9-4c-18,7-21,14-7,14
		C10052.2,1432.9,10059.2,1428.9,10062.2,1422.9z M10104.2,1400.9c-3-8-6-5-6,6c-1,11,2,17,5,13
		C10106.2,1416.9,10107.2,1407.9,10104.2,1400.9z M10730.2,1185.9c-7-2-19-2-25,0c-7,3-2,5,12,5S10736.2,1188.9,10730.2,1185.9z
		 M10114.2,1157.9c-4-8-12-15-19-14c-10,0-10,2,0,6c6,2,12,12,12,21c0,8,3,13,6,9C10117.2,1176.9,10117.2,1166.9,10114.2,1157.9z
		 M10662.2,1172.9c-12-5-14-9-6-9c8-1,12-3,9-6s-18,1-34,10l-29,15l40-1C10673.2,1181.9,10678.2,1179.9,10662.2,1172.9z
		 M10793.2,1156.9c24-19,34-34,33-53l-1-26l-7,27c-3,15-21,39-40,53s-31,25-27,25S10774.2,1170.9,10793.2,1156.9z M10702.2,1142.9
		c3-6-1-7-9-4c-18,7-21,14-7,14C10692.2,1152.9,10699.2,1148.9,10702.2,1142.9z M10747.2,1122.9c8-5,11-10,5-10c-5,0-17,5-25,10
		s-10,10-5,10C10728.2,1132.9,10739.2,1127.9,10747.2,1122.9z M10792.2,1102.9c3-6-1-7-9-4c-18,7-21,14-7,14
		C10782.2,1112.9,10789.2,1108.9,10792.2,1102.9z M11434.2,960.9c-2-13-4-5-4,17c-1,22,1,32,4,23
		C11436.2,990.9,11436.2,972.9,11434.2,960.9z M11443.2,815.9c-2-3-13,0-23,7c-16,10-16,11,0,6c14-4,17,1,19,32l1,37l4-39
		C11447.2,837.9,11446.2,818.9,11443.2,815.9z M11147.2,797.9c12-13,27-22,31-19c5,3,9-3,9-12c0-14-8-10-35,16c-40,39-52,34-58-25
		l-4-40l-1,47c-2,42,4,54,29,57C11121.2,822.9,11134.2,811.9,11147.2,797.9z M11227.2,781.9c-7-11-13-35-16-52c-2-17-8-35-13-40
		c-12-12-66,0-82,19c-10,12-7,12,17-1c35-18,64-19,65-2c5,45,7,55,18,75c6,12,14,22,17,22
		C11235.2,802.9,11233.2,793.9,11227.2,781.9z M11247.2,772.9c-6-11-13-20-16-20c-2,0,0,9,6,20s13,20,16,20
		C11255.2,792.9,11253.2,783.9,11247.2,772.9z M11241.2,665.9c-5-5-12-12-16-18s-8-2-8,8c0,9,7,17,17,17
		C11243.2,672.9,11246.2,669.9,11241.2,665.9z"/>
	<linearGradient id="SVGID_31_" gradientUnits="userSpaceOnUse" x1="10345.2295" y1="2408.0068" x2="10364.4473" y2="2408.0068">
		<stop  offset="0" style="stop-color:#000000"/>
		<stop  offset="0" style="stop-color:#EBEBEB"/>
		<stop  offset="0" style="stop-color:#A85700"/>
		<stop  offset="0.9926" style="stop-color:#FF8400"/>
	</linearGradient>
	<path class="st30" d="M10466.2,2480.9c-8-4-25-9-39-12s-38-24-53-46l-29-41l24,6c20,5,27,0,40-27l17-33v46c1,44,7,53,36,58
		c6,1,13-8,17-21c5-20,6-18,7,10c1,27,5,32,26,32c23,0,29,8,23,28C10531.2,2489.9,10484.2,2490.9,10466.2,2480.9z"/>
	<linearGradient id="SVGID_32_" gradientUnits="userSpaceOnUse" x1="10020.8203" y1="2472.9419" x2="10022.4609" y2="2472.9419">
		<stop  offset="0" style="stop-color:#000000"/>
		<stop  offset="0" style="stop-color:#EBEBEB"/>
		<stop  offset="0" style="stop-color:#A85700"/>
		<stop  offset="0.9926" style="stop-color:#FF8400"/>
	</linearGradient>
	<path class="st31" d="M10022.2,2472.9c-3-5-1-10,4-10c6,0,11,5,11,10c0,6-2,10-4,10C10030.2,2482.9,10025.2,2478.9,10022.2,2472.9z
		"/>
	<linearGradient id="SVGID_33_" gradientUnits="userSpaceOnUse" x1="11715.8662" y1="2279.4248" x2="11724.0029" y2="2279.4248">
		<stop  offset="0" style="stop-color:#000000"/>
		<stop  offset="0" style="stop-color:#EBEBEB"/>
		<stop  offset="0" style="stop-color:#A85700"/>
		<stop  offset="0.9926" style="stop-color:#FF8400"/>
	</linearGradient>
	<path class="st32" d="M11722.2,2294.9c19-18,75-46,75-38c0,3-21,16-47,31C11717.2,2305.9,11708.2,2307.9,11722.2,2294.9z"/>
	<linearGradient id="SVGID_34_" gradientUnits="userSpaceOnUse" x1="10808.6963" y1="2227.1919" x2="10813.2832" y2="2227.1919">
		<stop  offset="0" style="stop-color:#000000"/>
		<stop  offset="0" style="stop-color:#EBEBEB"/>
		<stop  offset="0" style="stop-color:#A85700"/>
		<stop  offset="0.9926" style="stop-color:#FF8400"/>
	</linearGradient>
	<path class="st33" d="M10827.2,2227.9c-24-14-24-14-4-15c12,0,24,7,28,15C10857.2,2245.9,10858.2,2245.9,10827.2,2227.9z"/>
	<linearGradient id="SVGID_35_" gradientUnits="userSpaceOnUse" x1="10499.083" y1="2163.3169" x2="10517.3076" y2="2163.3169">
		<stop  offset="0" style="stop-color:#000000"/>
		<stop  offset="0" style="stop-color:#EBEBEB"/>
		<stop  offset="0" style="stop-color:#A85700"/>
		<stop  offset="0.9926" style="stop-color:#FF8400"/>
	</linearGradient>
	<path class="st34" d="M10613.2,2212.9c-16-10-34-26-38-34c-5-9-16-16-23-16c-8,0-15-5-15-12c0-6-10-22-22-35c-21-22-21-24-3-17
		c11,4,39,20,63,36c23,16,55,34,71,39c37,13,46,35,21,49C10645.2,2234.9,10649.2,2235.9,10613.2,2212.9z M10667.2,2212.9
		c12-8,11-10-7-10c-13,0-23,5-23,10C10637.2,2225.9,10648.2,2225.9,10667.2,2212.9z"/>
	<linearGradient id="SVGID_36_" gradientUnits="userSpaceOnUse" x1="7467.23" y1="1852.9418" x2="7502.6641" y2="1852.9418">
		<stop  offset="0" style="stop-color:#000000"/>
		<stop  offset="0" style="stop-color:#EBEBEB"/>
		<stop  offset="0" style="stop-color:#A85700"/>
		<stop  offset="0.9926" style="stop-color:#FF8400"/>
	</linearGradient>
	<path class="st35" d="M7798.2,2124.9c-11-21-26-44-35-51c-8-7-27-33-41-57c-20-33-40-51-85-74c-66-33-74-49-71-126c1-29-1-54-6-57
		c-4-3-6,20-5,50c2,30,0,54-5,52c-17-8-83-54-83-59c0-3,14-21,32-40l30-35l-26,37l-26,37l29,20c16,12,33,21,38,21c4,0-6-10-24-21
		l-32-21l21-29c12-16,26-29,31-29s5-6-1-13s-12-26-14-42c-2-17-7-33-13-38c-6-4,0-15,14-26c15-11,22-24,18-34c-4-11-2-14,8-10
		c8,3,18-2,21-11c5-12,10-13,26-5s23,8,29-2c8-11,12-10,25,6c16,20,16,20,9-2c-3-13-4-23-2-23c3,0,17,39,32,88c15,48,42,125,61,172
		c52,134,75,254,47,243c-16-6-16-7,6,60c10,32,17,57,15,57S7809.2,2145.9,7798.2,2124.9z"/>
	<linearGradient id="SVGID_37_" gradientUnits="userSpaceOnUse" x1="10127.2295" y1="1702.9418" x2="10128.8711" y2="1702.9418">
		<stop  offset="0" style="stop-color:#000000"/>
		<stop  offset="0" style="stop-color:#EBEBEB"/>
		<stop  offset="0" style="stop-color:#A85700"/>
		<stop  offset="0.9926" style="stop-color:#FF8400"/>
	</linearGradient>
	<path class="st36" d="M10127.2,1702.9c0-5,5-10,11-10c5,0,7,5,4,10c-3,6-8,10-11,10C10129.2,1712.9,10127.2,1708.9,10127.2,1702.9z
		"/>
	<linearGradient id="SVGID_38_" gradientUnits="userSpaceOnUse" x1="11739.2295" y1="547.9418" x2="11823.5303" y2="547.9418">
		<stop  offset="0" style="stop-color:#000000"/>
		<stop  offset="0" style="stop-color:#EBEBEB"/>
		<stop  offset="0" style="stop-color:#A85700"/>
		<stop  offset="0.9926" style="stop-color:#FF8400"/>
	</linearGradient>
	<path class="st37" d="M12217.2,982.9c0-8-7-64-15-125c-17-130-17-153,0-70l13,60l-1-52c0-39-5-57-21-72c-34-32-43-46-38-60
		c2-7,0-16-6-20c-6-3-53-47-105-97c-52-51-128-114-168-142c-41-27-80-60-87-73c-6-13-20-69-31-123l-19-100l143,147
		c78,81,148,147,154,147s11,7,11,15c0,23,76,101,122,125c68,35,147,103,147,126c1,12,8,27,16,34s12,16,10,21c-3,4,50,65,117,135
		l123,128l-140-117c-77-64-143-117-146-117c-4,0-12,19-18,43C12261.2,866.9,12218.2,998.9,12217.2,982.9z M12422.2,831.9
		c-22-22-49-45-60-51s5,12,35,40C12463.2,882.9,12476.2,887.9,12422.2,831.9z M11789.2,210.9c-7-7-12-18-12-26c0-12,3-12,15-2
		c25,21,17,5-11-21l-27-24l7,30c8,30,23,55,34,55C11798.2,222.9,11796.2,217.9,11789.2,210.9z"/>
	<linearGradient id="SVGID_39_" gradientUnits="userSpaceOnUse" x1="3836.8965" y1="888.3019" x2="3840.6907" y2="888.3019">
		<stop  offset="0" style="stop-color:#000000"/>
		<stop  offset="0" style="stop-color:#EBEBEB"/>
		<stop  offset="0" style="stop-color:#A85700"/>
		<stop  offset="0.9926" style="stop-color:#FF8400"/>
	</linearGradient>
	<path class="st38" d="M3842.2,894.9c-11-11-4-20,12-18c22,3,29,23,8,23C3854.2,899.9,3845.2,896.9,3842.2,894.9z"/>
</g>
</svg>
